<svg xmlns="http://www.w3.org/2000/svg" width="717.0496826171875" height="791.1185302734375" viewBox="-274.95306396484375 -315.8800964355469 717.0496826171875 791.1185302734375"><title>Neo4j Graph Visualization</title><desc>Created using Neo4j (http://www.neo4j.com/)</desc><g class="layer relationships"><g class="relationship" transform="translate(117.0721685461568 343.8673436180573) rotate(273.8167798335455)"><path class="outline" fill="#A5ABB6" stroke="none" d="M 25 0.5 L 77.69392635940422 0.5 L 77.69392635940422 -0.5 L 25 -0.5 Z M 112.47725918411125 0.5 L 165.17118554351546 0.5 L 165.17118554351546 3.5 L 172.17118554351546 0 L 165.17118554351546 -3.5 L 165.17118554351546 -0.5 L 112.47725918411125 -0.5 Z"/><text text-anchor="middle" pointer-events="none" font-size="8px" fill="#000000" x="95.08559277175773" y="3" font-family="sans-serif">ORIGIN</text></g><g class="relationship" transform="translate(117.0721685461568 343.8673436180573) rotate(456.893449880454)"><path class="outline" fill="#A5ABB6" stroke="none" d="M 25 0.5 L 26.291559484714526 0.5 L 26.291559484714526 -0.5 L 25 -0.5 Z M 69.82489230942156 0.5 L 71.11645179413608 0.5 L 71.11645179413608 3.5 L 78.11645179413608 0 L 71.11645179413608 -3.5 L 71.11645179413608 -0.5 L 69.82489230942156 -0.5 Z"/><text text-anchor="middle" pointer-events="none" font-size="8px" fill="#000000" x="48.05822589706804" y="3" transform="rotate(180 48.05822589706804 0)" font-family="sans-serif">DESTIN…</text></g><g class="relationship" transform="translate(65.34815104677571 313.5069446796699) rotate(433.4877796623527)"><path class="outline" fill="#A5ABB6" stroke="none" d="M 25 0.5 L 35.76209063271253 0.5 L 35.76209063271253 -0.5 L 25 -0.5 Z M 95.67875857094495 0.5 L 106.44084920365748 0.5 L 106.44084920365748 3.5 L 113.44084920365748 0 L 106.44084920365748 -3.5 L 106.44084920365748 -0.5 L 95.67875857094495 -0.5 Z"/><text text-anchor="middle" pointer-events="none" font-size="8px" fill="#000000" x="65.72042460182874" y="3" font-family="sans-serif">DESTINATION</text></g><g class="relationship" transform="translate(65.34815104677571 313.5069446796699) rotate(291.29480862464254)"><path class="outline" fill="#A5ABB6" stroke="none" d="M 25 0.5 L 68.39091068006903 0.5 L 68.39091068006903 -0.5 L 25 -0.5 Z M 103.17424350477606 0.5 L 146.56515418484508 0.5 L 146.56515418484508 3.5 L 153.56515418484508 0 L 146.56515418484508 -3.5 L 146.56515418484508 -0.5 L 103.17424350477606 -0.5 Z"/><text text-anchor="middle" pointer-events="none" font-size="8px" fill="#000000" x="85.78257709242254" y="3" font-family="sans-serif">ORIGIN</text></g><g class="relationship" transform="translate(272.7849428287566 91.60674687854736) rotate(518.7230065213812)"><path class="outline" fill="#A5ABB6" stroke="none" d="M 25 0.5 L 55.61734331974495 0.5 L 55.61734331974495 -0.5 L 25 -0.5 Z M 90.40067614445198 0.5 L 121.01801946419693 0.5 L 121.01801946419693 3.5 L 128.01801946419693 0 L 121.01801946419693 -3.5 L 121.01801946419693 -0.5 L 90.40067614445198 -0.5 Z"/><text text-anchor="middle" pointer-events="none" font-size="8px" fill="#000000" x="73.00900973209846" y="3" transform="rotate(180 73.00900973209846 0)" font-family="sans-serif">ORIGIN</text></g><g class="relationship" transform="translate(272.7849428287566 91.60674687854736) rotate(393.48136841275556)"><path class="outline" fill="#A5ABB6" stroke="none" d="M 25 0.5 L 50.6547776532547 0.5 L 50.6547776532547 -0.5 L 25 -0.5 Z M 110.57144559148712 0.5 L 136.22622324474182 0.5 L 136.22622324474182 3.5 L 143.22622324474182 0 L 136.22622324474182 -3.5 L 136.22622324474182 -0.5 L 110.57144559148712 -0.5 Z"/><text text-anchor="middle" pointer-events="none" font-size="8px" fill="#000000" x="80.61311162237091" y="3" font-family="sans-serif">DESTINATION</text></g><g class="relationship" transform="translate(308.00145836345797 189.1723832146761) rotate(193.30235930121358)"><path class="outline" fill="#A5ABB6" stroke="none" d="M 25 0.5 L 57.89491335726129 0.5 L 57.89491335726129 -0.5 L 25 -0.5 Z M 117.81158129549371 0.5 L 150.706494652755 0.5 L 150.706494652755 3.5 L 157.706494652755 0 L 150.706494652755 -3.5 L 150.706494652755 -0.5 L 117.81158129549371 -0.5 Z"/><text text-anchor="middle" pointer-events="none" font-size="8px" fill="#000000" x="87.8532473263775" y="3" transform="rotate(180 87.8532473263775 0)" font-family="sans-serif">DESTINATION</text></g><g class="relationship" transform="translate(308.00145836345797 189.1723832146761) rotate(357.40617957235213)"><path class="outline" fill="#A5ABB6" stroke="none" d="M 25 0.5 L 31.70979246746368 0.5 L 31.70979246746368 -0.5 L 25 -0.5 Z M 66.4931252921707 0.5 L 73.20291775963439 0.5 L 73.20291775963439 3.5 L 80.20291775963439 0 L 73.20291775963439 -3.5 L 73.20291775963439 -0.5 L 66.4931252921707 -0.5 Z"/><text text-anchor="middle" pointer-events="none" font-size="8px" fill="#000000" x="49.101458879817194" y="3" font-family="sans-serif">ORIGIN</text></g><g class="relationship" transform="translate(261.02733930582815 268.6102874284702) rotate(222.8769220701903)"><path class="outline" fill="#A5ABB6" stroke="none" d="M 25 0.5 L 55.80695753346956 0.5 L 55.80695753346956 -0.5 L 25 -0.5 Z M 115.72362547170198 0.5 L 146.53058300517154 0.5 L 146.53058300517154 3.5 L 153.53058300517154 0 L 146.53058300517154 -3.5 L 146.53058300517154 -0.5 L 115.72362547170198 -0.5 Z"/><text text-anchor="middle" pointer-events="none" font-size="8px" fill="#000000" x="85.76529150258577" y="3" transform="rotate(180 85.76529150258577 0)" font-family="sans-serif">DESTINATION</text></g><g class="relationship" transform="translate(261.02733930582815 268.6102874284702) rotate(331.0272364022844)"><path class="outline" fill="#A5ABB6" stroke="none" d="M 25 0.5 L 66.01994113583571 0.5 L 66.01994113583571 -0.5 L 25 -0.5 Z M 100.80327396054274 0.5 L 141.82321509637845 0.5 L 141.82321509637845 3.5 L 148.82321509637845 0 L 141.82321509637845 -3.5 L 141.82321509637845 -0.5 L 100.80327396054274 -0.5 Z"/><text text-anchor="middle" pointer-events="none" font-size="8px" fill="#000000" x="83.41160754818922" y="3" font-family="sans-serif">ORIGIN</text></g><g class="relationship" transform="translate(317.2495794677375 248.3924534083716) rotate(208.42845048638281)"><path class="outline" fill="#A5ABB6" stroke="none" d="M 25 0.5 L 72.89251683311123 0.5 L 72.89251683311123 -0.5 L 25 -0.5 Z M 132.80918477134367 0.5 L 180.70170160445488 0.5 L 180.70170160445488 3.5 L 187.70170160445488 0 L 180.70170160445488 -3.5 L 180.70170160445488 -0.5 L 132.80918477134367 -0.5 Z"/><text text-anchor="middle" pointer-events="none" font-size="8px" fill="#000000" x="102.85085080222744" y="3" transform="rotate(180 102.85085080222744 0)" font-family="sans-serif">DESTINATION</text></g><g class="relationship" transform="translate(317.2495794677375 248.3924534083716) rotate(326.2755775202668)"><path class="outline" fill="#A5ABB6" stroke="none" d="M 25 0.5 L 36.72826269975682 0.5 L 36.72826269975682 -0.5 L 25 -0.5 Z M 71.51159552446384 0.5 L 83.23985822422067 0.5 L 83.23985822422067 3.5 L 90.23985822422067 0 L 83.23985822422067 -3.5 L 83.23985822422067 -0.5 L 71.51159552446384 -0.5 Z"/><text text-anchor="middle" pointer-events="none" font-size="8px" fill="#000000" x="54.119929112110334" y="3" font-family="sans-serif">ORIGIN</text></g><g class="relationship" transform="translate(251.79311248828208 209.55409037416558) rotate(207.17343252996557)"><path class="outline" fill="#A5ABB6" stroke="none" d="M 25 0.5 L 34.88258627285386 0.5 L 34.88258627285386 -0.5 L 25 -0.5 Z M 94.79925421108628 0.5 L 104.68184048394014 0.5 L 104.68184048394014 3.5 L 111.68184048394014 0 L 104.68184048394014 -3.5 L 104.68184048394014 -0.5 L 94.79925421108628 -0.5 Z"/><text text-anchor="middle" pointer-events="none" font-size="8px" fill="#000000" x="64.84092024197007" y="3" transform="rotate(180 64.84092024197007 0)" font-family="sans-serif">DESTINATION</text></g><g class="relationship" transform="translate(251.79311248828208 209.55409037416558) rotate(351.14048540031376)"><path class="outline" fill="#A5ABB6" stroke="none" d="M 25 0.5 L 60.73395325190826 0.5 L 60.73395325190826 -0.5 L 25 -0.5 Z M 95.51728607661529 0.5 L 131.25123932852355 0.5 L 131.25123932852355 3.5 L 138.25123932852355 0 L 131.25123932852355 -3.5 L 131.25123932852355 -0.5 L 95.51728607661529 -0.5 Z"/><text text-anchor="middle" pointer-events="none" font-size="8px" fill="#000000" x="78.12561966426178" y="3" font-family="sans-serif">ORIGIN</text></g><g class="relationship" transform="translate(329.1233744456034 71.3725704237183) rotate(519.1507064180346)"><path class="outline" fill="#A5ABB6" stroke="none" d="M 25 0.5 L 85.54068609460518 0.5 L 85.54068609460518 -0.5 L 25 -0.5 Z M 120.32401891931221 0.5 L 180.8647050139174 0.5 L 180.8647050139174 3.5 L 187.8647050139174 0 L 180.8647050139174 -3.5 L 180.8647050139174 -0.5 L 120.32401891931221 -0.5 Z"/><text text-anchor="middle" pointer-events="none" font-size="8px" fill="#000000" x="102.9323525069587" y="3" transform="rotate(180 102.9323525069587 0)" font-family="sans-serif">ORIGIN</text></g><g class="relationship" transform="translate(329.1233744456034 71.3725704237183) rotate(413.3924302903275)"><path class="outline" fill="#A5ABB6" stroke="none" d="M 25 0.5 L 36.949900601278614 0.5 L 36.949900601278614 -0.5 L 25 -0.5 Z M 96.86656853951104 0.5 L 108.81646914078965 0.5 L 108.81646914078965 3.5 L 115.81646914078965 0 L 108.81646914078965 -3.5 L 108.81646914078965 -0.5 L 96.86656853951104 -0.5 Z"/><text text-anchor="middle" pointer-events="none" font-size="8px" fill="#000000" x="66.90823457039482" y="3" font-family="sans-serif">DESTINATION</text></g><g class="relationship" transform="translate(318.45670023413254 130.26253296721438) rotate(534.8790989572858)"><path class="outline" fill="#A5ABB6" stroke="none" d="M 25 0.5 L 73.61535738168585 0.5 L 73.61535738168585 -0.5 L 25 -0.5 Z M 108.39869020639289 0.5 L 157.01404758807874 0.5 L 157.01404758807874 3.5 L 164.01404758807874 0 L 157.01404758807874 -3.5 L 157.01404758807874 -0.5 L 108.39869020639289 -0.5 Z"/><text text-anchor="middle" pointer-events="none" font-size="8px" fill="#000000" x="91.00702379403937" y="3" transform="rotate(180 91.00702379403937 0)" font-family="sans-serif">ORIGIN</text></g><g class="relationship" transform="translate(318.45670023413254 130.26253296721438) rotate(389.7763294597361)"><path class="outline" fill="#A5ABB6" stroke="none" d="M 25 0.5 L 26.517906898964846 0.5 L 26.517906898964846 -0.5 L 25 -0.5 Z M 75.51790689896484 0.5 L 77.03581379792969 0.5 L 77.03581379792969 3.5 L 84.03581379792969 0 L 77.03581379792969 -3.5 L 77.03581379792969 -0.5 L 75.51790689896484 -0.5 Z"/><text text-anchor="middle" pointer-events="none" font-size="8px" fill="#000000" x="51.017906898964846" y="3" font-family="sans-serif">DESTINA…</text></g><g class="relationship" transform="translate(262.1893488272862 150.502812572023) rotate(181.46225687717674)"><path class="outline" fill="#A5ABB6" stroke="none" d="M 25 0.5 L 45.12596213601954 0.5 L 45.12596213601954 -0.5 L 25 -0.5 Z M 79.90929496072657 0.5 L 100.03525709674611 0.5 L 100.03525709674611 3.5 L 107.03525709674611 0 L 100.03525709674611 -3.5 L 100.03525709674611 -0.5 L 79.90929496072657 -0.5 Z"/><text text-anchor="middle" pointer-events="none" font-size="8px" fill="#000000" x="62.517628548373054" y="3" transform="rotate(180 62.517628548373054 0)" font-family="sans-serif">ORIGIN</text></g><g class="relationship" transform="translate(262.1893488272862 150.502812572023) rotate(372.663924180148)"><path class="outline" fill="#A5ABB6" stroke="none" d="M 25 0.5 L 43.876632329835886 0.5 L 43.876632329835886 -0.5 L 25 -0.5 Z M 103.79330026806831 0.5 L 122.6699325979042 0.5 L 122.6699325979042 3.5 L 129.6699325979042 0 L 122.6699325979042 -3.5 L 122.6699325979042 -0.5 L 103.79330026806831 -0.5 Z"/><text text-anchor="middle" pointer-events="none" font-size="8px" fill="#000000" x="73.8349662989521" y="3" font-family="sans-serif">DESTINATION</text></g><g class="relationship" transform="translate(117.64670917373569 284.1108474781215) rotate(454.56715097748577)"><path class="outline" fill="#A5ABB6" stroke="none" d="M 25 0.5 L 47.8636513141206 0.5 L 47.8636513141206 -0.5 L 25 -0.5 Z M 107.78031925235302 0.5 L 130.64397056647363 0.5 L 130.64397056647363 3.5 L 137.64397056647363 0 L 130.64397056647363 -3.5 L 130.64397056647363 -0.5 L 107.78031925235302 -0.5 Z"/><text text-anchor="middle" pointer-events="none" font-size="8px" fill="#000000" x="77.82198528323681" y="3" transform="rotate(180 77.82198528323681 0)" font-family="sans-serif">DESTINATION</text></g><g class="relationship" transform="translate(117.64670917373569 284.1108474781215) rotate(275.23503742096125)"><path class="outline" fill="#A5ABB6" stroke="none" d="M 25 0.5 L 47.883894433299744 0.5 L 47.883894433299744 -0.5 L 25 -0.5 Z M 82.66722725800678 0.5 L 105.55112169130652 0.5 L 105.55112169130652 3.5 L 112.55112169130652 0 L 105.55112169130652 -3.5 L 105.55112169130652 -0.5 L 82.66722725800678 -0.5 Z"/><text text-anchor="middle" pointer-events="none" font-size="8px" fill="#000000" x="65.27556084565326" y="3" font-family="sans-serif">ORIGIN</text></g><g class="relationship" transform="translate(171.75020730520038 319.4077836660317) rotate(477.86508603601567)"><path class="outline" fill="#A5ABB6" stroke="none" d="M 25 0.5 L 38.27431873261109 0.5 L 38.27431873261109 -0.5 L 25 -0.5 Z M 98.19098667084351 0.5 L 111.46530540345461 0.5 L 111.46530540345461 3.5 L 118.46530540345461 0 L 111.46530540345461 -3.5 L 111.46530540345461 -0.5 L 98.19098667084351 -0.5 Z"/><text text-anchor="middle" pointer-events="none" font-size="8px" fill="#000000" x="68.2326527017273" y="3" transform="rotate(180 68.2326527017273 0)" font-family="sans-serif">DESTINATION</text></g><g class="relationship" transform="translate(171.75020730520038 319.4077836660317) rotate(256.4390991554751)"><path class="outline" fill="#A5ABB6" stroke="none" d="M 25 0.5 L 67.71575028554618 0.5 L 67.71575028554618 -0.5 L 25 -0.5 Z M 102.49908311025321 0.5 L 145.2148333957994 0.5 L 145.2148333957994 3.5 L 152.2148333957994 0 L 145.2148333957994 -3.5 L 145.2148333957994 -0.5 L 102.49908311025321 -0.5 Z"/><text text-anchor="middle" pointer-events="none" font-size="8px" fill="#000000" x="85.1074166978997" y="3" transform="rotate(180 85.1074166978997 0)" font-family="sans-serif">ORIGIN</text></g><g class="relationship" transform="translate(137.07337061696794 -33.23546724468936) rotate(452.18325399057926)"><path class="outline" fill="#A5ABB6" stroke="none" d="M 25 0.5 L 69.35832054111874 0.5 L 69.35832054111874 -0.5 L 25 -0.5 Z M 104.14165336582577 0.5 L 148.49997390694452 0.5 L 148.49997390694452 3.5 L 155.49997390694452 0 L 148.49997390694452 -3.5 L 148.49997390694452 -0.5 L 104.14165336582577 -0.5 Z"/><text text-anchor="middle" pointer-events="none" font-size="8px" fill="#000000" x="86.74998695347226" y="3" transform="rotate(180 86.74998695347226 0)" font-family="sans-serif">ORIGIN</text></g><g class="relationship" transform="translate(137.07337061696794 -33.23546724468936) rotate(314.5440286863229)"><path class="outline" fill="#A5ABB6" stroke="none" d="M 25 0.5 L 39.89236170639012 0.5 L 39.89236170639012 -0.5 L 25 -0.5 Z M 99.80902964462254 0.5 L 114.70139135101266 0.5 L 114.70139135101266 3.5 L 121.70139135101266 0 L 114.70139135101266 -3.5 L 114.70139135101266 -0.5 L 99.80902964462254 -0.5 Z"/><text text-anchor="middle" pointer-events="none" font-size="8px" fill="#000000" x="69.85069567550633" y="3" font-family="sans-serif">DESTINATION</text></g><g class="relationship" transform="translate(68.14412104066909 -1.737717583531595) rotate(427.37249399216114)"><path class="outline" fill="#A5ABB6" stroke="none" d="M 25 0.5 L 47.18471352395767 0.5 L 47.18471352395767 -0.5 L 25 -0.5 Z M 107.10138146219009 0.5 L 129.28609498614776 0.5 L 129.28609498614776 3.5 L 136.28609498614776 0 L 129.28609498614776 -3.5 L 129.28609498614776 -0.5 L 107.10138146219009 -0.5 Z"/><text text-anchor="middle" pointer-events="none" font-size="8px" fill="#000000" x="77.14304749307388" y="3" font-family="sans-serif">DESTINATION</text></g><g class="relationship" transform="translate(68.14412104066909 -1.737717583531595) rotate(258.6952851104477)"><path class="outline" fill="#A5ABB6" stroke="none" d="M 25 0.5 L 59.241322692277734 0.5 L 59.241322692277734 -0.5 L 25 -0.5 Z M 94.02465551698477 0.5 L 128.2659782092625 0.5 L 128.2659782092625 3.5 L 135.2659782092625 0 L 128.2659782092625 -3.5 L 128.2659782092625 -0.5 L 94.02465551698477 -0.5 Z"/><text text-anchor="middle" pointer-events="none" font-size="8px" fill="#000000" x="76.63298910463125" y="3" transform="rotate(180 76.63298910463125 0)" font-family="sans-serif">ORIGIN</text></g><g class="relationship" transform="translate(237.02150721877794 2.0436981996229693) rotate(486.3628873339135)"><path class="outline" fill="#A5ABB6" stroke="none" d="M 25 0.5 L 56.62843159854252 0.5 L 56.62843159854252 -0.5 L 25 -0.5 Z M 116.54509953677494 0.5 L 148.17353113531746 0.5 L 148.17353113531746 3.5 L 155.17353113531746 0 L 148.17353113531746 -3.5 L 148.17353113531746 -0.5 L 116.54509953677494 -0.5 Z"/><text text-anchor="middle" pointer-events="none" font-size="8px" fill="#000000" x="86.58676556765873" y="3" transform="rotate(180 86.58676556765873 0)" font-family="sans-serif">DESTINATION</text></g><g class="relationship" transform="translate(237.02150721877794 2.0436981996229693) rotate(271.2112541335032)"><path class="outline" fill="#A5ABB6" stroke="none" d="M 25 0.5 L 49.041436547814044 0.5 L 49.041436547814044 -0.5 L 25 -0.5 Z M 83.82476937252108 0.5 L 107.86620592033512 0.5 L 107.86620592033512 3.5 L 114.86620592033512 0 L 107.86620592033512 -3.5 L 107.86620592033512 -0.5 L 83.82476937252108 -0.5 Z"/><text text-anchor="middle" pointer-events="none" font-size="8px" fill="#000000" x="66.43310296016756" y="3" font-family="sans-serif">ORIGIN</text></g><g class="relationship" transform="translate(196.34139456510047 -41.940220151831845) rotate(469.28154477684006)"><path class="outline" fill="#A5ABB6" stroke="none" d="M 25 0.5 L 79.2631306363495 0.5 L 79.2631306363495 -0.5 L 25 -0.5 Z M 114.04646346105653 0.5 L 168.30959409740603 0.5 L 168.30959409740603 3.5 L 175.30959409740603 0 L 168.30959409740603 -3.5 L 168.30959409740603 -0.5 L 114.04646346105653 -0.5 Z"/><text text-anchor="middle" pointer-events="none" font-size="8px" fill="#000000" x="96.65479704870302" y="3" transform="rotate(180 96.65479704870302 0)" font-family="sans-serif">ORIGIN</text></g><g class="relationship" transform="translate(196.34139456510047 -41.940220151831845) rotate(294.47766488031345)"><path class="outline" fill="#A5ABB6" stroke="none" d="M 25 0.5 L 27.391627855286515 0.5 L 27.391627855286515 -0.5 L 25 -0.5 Z M 70.92496067999355 0.5 L 73.31658853528006 0.5 L 73.31658853528006 3.5 L 80.31658853528006 0 L 73.31658853528006 -3.5 L 73.31658853528006 -0.5 L 70.92496067999355 -0.5 Z"/><text text-anchor="middle" pointer-events="none" font-size="8px" fill="#000000" x="49.15829426764003" y="3" font-family="sans-serif">DESTIN…</text></g><g class="relationship" transform="translate(174.44427858892115 13.68548447256403) rotate(468.34390961739336)"><path class="outline" fill="#A5ABB6" stroke="none" d="M 25 0.5 L 36.837792284020395 0.5 L 36.837792284020395 -0.5 L 25 -0.5 Z M 96.75446022225282 0.5 L 108.59225250627321 0.5 L 108.59225250627321 3.5 L 115.59225250627321 0 L 108.59225250627321 -3.5 L 108.59225250627321 -0.5 L 96.75446022225282 -0.5 Z"/><text text-anchor="middle" pointer-events="none" font-size="8px" fill="#000000" x="66.7961262531366" y="3" transform="rotate(180 66.7961262531366 0)" font-family="sans-serif">DESTINATION</text></g><g class="relationship" transform="translate(174.44427858892115 13.68548447256403) rotate(293.3949003741249)"><path class="outline" fill="#A5ABB6" stroke="none" d="M 25 0.5 L 61.63088454221865 0.5 L 61.63088454221865 -0.5 L 25 -0.5 Z M 96.41421736692568 0.5 L 133.04510190914434 0.5 L 133.04510190914434 3.5 L 140.04510190914434 0 L 133.04510190914434 -3.5 L 133.04510190914434 -0.5 L 96.41421736692568 -0.5 Z"/><text text-anchor="middle" pointer-events="none" font-size="8px" fill="#000000" x="79.02255095457217" y="3" font-family="sans-serif">ORIGIN</text></g><g class="relationship" transform="translate(-6.890680825641368 5.664240679135317) rotate(405.90114068957337)"><path class="outline" fill="#A5ABB6" stroke="none" d="M 25 0.5 L 77.60529089933394 0.5 L 77.60529089933394 -0.5 L 25 -0.5 Z M 112.38862372404097 0.5 L 164.9939146233749 0.5 L 164.9939146233749 3.5 L 171.9939146233749 0 L 164.9939146233749 -3.5 L 164.9939146233749 -0.5 L 112.38862372404097 -0.5 Z"/><text text-anchor="middle" pointer-events="none" font-size="8px" fill="#000000" x="94.99695731168745" y="3" font-family="sans-serif">ORIGIN</text></g><g class="relationship" transform="translate(-6.890680825641368 5.664240679135317) rotate(221.04462735148354)"><path class="outline" fill="#A5ABB6" stroke="none" d="M 25 0.5 L 54.91008437126328 0.5 L 54.91008437126328 -0.5 L 25 -0.5 Z M 114.8267523094957 0.5 L 144.73683668075898 0.5 L 144.73683668075898 3.5 L 151.73683668075898 0 L 144.73683668075898 -3.5 L 144.73683668075898 -0.5 L 114.8267523094957 -0.5 Z"/><text text-anchor="middle" pointer-events="none" font-size="8px" fill="#000000" x="84.86841834037949" y="3" transform="rotate(180 84.86841834037949 0)" font-family="sans-serif">DESTINATION</text></g><g class="relationship" transform="translate(-245.95304172112412 -177.1526558360133) rotate(392.2611473472928)"><path class="outline" fill="#A5ABB6" stroke="none" d="M 25 0.5 L 41.64660816800215 0.5 L 41.64660816800215 -0.5 L 25 -0.5 Z M 76.42994099270919 0.5 L 93.07654916071134 0.5 L 93.07654916071134 3.5 L 100.07654916071134 0 L 93.07654916071134 -3.5 L 93.07654916071134 -0.5 L 76.42994099270919 -0.5 Z"/><text text-anchor="middle" pointer-events="none" font-size="8px" fill="#000000" x="59.03827458035567" y="3" font-family="sans-serif">ORIGIN</text></g><g class="relationship" transform="translate(-245.95304172112412 -177.1526558360133) rotate(272.5820511914899)"><path class="outline" fill="#A5ABB6" stroke="none" d="M 25 0.5 L 26.91947841992659 0.5 L 26.91947841992659 -0.5 L 25 -0.5 Z M 75.91947841992659 0.5 L 77.83895683985318 0.5 L 77.83895683985318 3.5 L 84.83895683985318 0 L 77.83895683985318 -3.5 L 77.83895683985318 -0.5 L 75.91947841992659 -0.5 Z"/><text text-anchor="middle" pointer-events="none" font-size="8px" fill="#000000" x="51.41947841992659" y="3" font-family="sans-serif">DESTINA…</text></g><g class="relationship" transform="translate(-67.23603156266475 88.89121377352744) rotate(376.43592474648636)"><path class="outline" fill="#A5ABB6" stroke="none" d="M 25 0.5 L 82.03063272455817 0.5 L 82.03063272455817 -0.5 L 25 -0.5 Z M 116.8139655492652 0.5 L 173.84459827382338 0.5 L 173.84459827382338 3.5 L 180.84459827382338 0 L 173.84459827382338 -3.5 L 173.84459827382338 -0.5 L 116.8139655492652 -0.5 Z"/><text text-anchor="middle" pointer-events="none" font-size="8px" fill="#000000" x="99.42229913691169" y="3" font-family="sans-serif">ORIGIN</text></g><g class="relationship" transform="translate(-67.23603156266475 88.89121377352744) rotate(489.4615347365899)"><path class="outline" fill="#A5ABB6" stroke="none" d="M 25 0.5 L 36.001749303710895 0.5 L 36.001749303710895 -0.5 L 25 -0.5 Z M 95.91841724194332 0.5 L 106.92016654565421 0.5 L 106.92016654565421 3.5 L 113.92016654565421 0 L 106.92016654565421 -3.5 L 106.92016654565421 -0.5 L 95.91841724194332 -0.5 Z"/><text text-anchor="middle" pointer-events="none" font-size="8px" fill="#000000" x="65.9600832728271" y="3" transform="rotate(180 65.9600832728271 0)" font-family="sans-serif">DESTINATION</text></g><g class="relationship" transform="translate(-49.176814209911846 207.34674650392074) rotate(341.4438309079063)"><path class="outline" fill="#A5ABB6" stroke="none" d="M 25 0.5 L 73.71361153598926 0.5 L 73.71361153598926 -0.5 L 25 -0.5 Z M 108.49694436069629 0.5 L 157.21055589668555 0.5 L 157.21055589668555 3.5 L 164.21055589668555 0 L 157.21055589668555 -3.5 L 157.21055589668555 -0.5 L 108.49694436069629 -0.5 Z"/><text text-anchor="middle" pointer-events="none" font-size="8px" fill="#000000" x="91.10527794834277" y="3" font-family="sans-serif">ORIGIN</text></g><g class="relationship" transform="translate(-49.176814209911846 207.34674650392074) rotate(186.01281148437045)"><path class="outline" fill="#A5ABB6" stroke="none" d="M 25 0.5 L 25.469827072367643 0.5 L 25.469827072367643 -0.5 L 25 -0.5 Z M 74.46982707236765 0.5 L 74.93965414473529 0.5 L 74.93965414473529 3.5 L 81.93965414473529 0 L 74.93965414473529 -3.5 L 74.93965414473529 -0.5 L 74.46982707236765 -0.5 Z"/><text text-anchor="middle" pointer-events="none" font-size="8px" fill="#000000" x="49.96982707236764" y="3" transform="rotate(180 49.96982707236764 0)" font-family="sans-serif">DESTINA…</text></g><g class="relationship" transform="translate(-11.487361332253869 110.63778618763638) rotate(374.4444964093043)"><path class="outline" fill="#A5ABB6" stroke="none" d="M 25 0.5 L 52.26299697994362 0.5 L 52.26299697994362 -0.5 L 25 -0.5 Z M 87.04632980465065 0.5 L 114.30932678459428 0.5 L 114.30932678459428 3.5 L 121.30932678459428 0 L 114.30932678459428 -3.5 L 114.30932678459428 -0.5 L 87.04632980465065 -0.5 Z"/><text text-anchor="middle" pointer-events="none" font-size="8px" fill="#000000" x="69.65466339229714" y="3" font-family="sans-serif">ORIGIN</text></g><g class="relationship" transform="translate(-11.487361332253869 110.63778618763638) rotate(509.3053567927785)"><path class="outline" fill="#A5ABB6" stroke="none" d="M 25 0.5 L 50.29604340271243 0.5 L 50.29604340271243 -0.5 L 25 -0.5 Z M 110.21271134094485 0.5 L 135.50875474365728 0.5 L 135.50875474365728 3.5 L 142.50875474365728 0 L 135.50875474365728 -3.5 L 135.50875474365728 -0.5 L 110.21271134094485 -0.5 Z"/><text text-anchor="middle" pointer-events="none" font-size="8px" fill="#000000" x="80.25437737182864" y="3" transform="rotate(180 80.25437737182864 0)" font-family="sans-serif">DESTINATION</text></g><g class="relationship" transform="translate(-40.01788111668061 266.5150958933791) rotate(324.9557966948427)"><path class="outline" fill="#A5ABB6" stroke="none" d="M 25 0.5 L 83.06157554228086 0.5 L 83.06157554228086 -0.5 L 25 -0.5 Z M 117.8449083669879 0.5 L 175.90648390926876 0.5 L 175.90648390926876 3.5 L 182.90648390926876 0 L 175.90648390926876 -3.5 L 175.90648390926876 -0.5 L 117.8449083669879 -0.5 Z"/><text text-anchor="middle" pointer-events="none" font-size="8px" fill="#000000" x="100.45324195463438" y="3" font-family="sans-serif">ORIGIN</text></g><g class="relationship" transform="translate(-40.01788111668061 266.5150958933791) rotate(211.35032227033957)"><path class="outline" fill="#A5ABB6" stroke="none" d="M 25 0.5 L 34.17044777415467 0.5 L 34.17044777415467 -0.5 L 25 -0.5 Z M 94.08711571238709 0.5 L 103.25756348654176 0.5 L 103.25756348654176 3.5 L 110.25756348654176 0 L 103.25756348654176 -3.5 L 103.25756348654176 -0.5 L 94.08711571238709 -0.5 Z"/><text text-anchor="middle" pointer-events="none" font-size="8px" fill="#000000" x="64.12878174327088" y="3" transform="rotate(180 64.12878174327088 0)" font-family="sans-serif">DESTINATION</text></g><g class="relationship" transform="translate(-58.23031433076038 148.02138806786547) rotate(359.73001285345777)"><path class="outline" fill="#A5ABB6" stroke="none" d="M 25 0.5 L 73.32308112533143 0.5 L 73.32308112533143 -0.5 L 25 -0.5 Z M 108.10641395003846 0.5 L 156.42949507536989 0.5 L 156.42949507536989 3.5 L 163.42949507536989 0 L 156.42949507536989 -3.5 L 156.42949507536989 -0.5 L 108.10641395003846 -0.5 Z"/><text text-anchor="middle" pointer-events="none" font-size="8px" fill="#000000" x="90.71474753768494" y="3" font-family="sans-serif">ORIGIN</text></g><g class="relationship" transform="translate(-58.23031433076038 148.02138806786547) rotate(513.6830786010569)"><path class="outline" fill="#A5ABB6" stroke="none" d="M 25 0.5 L 26.274125179499265 0.5 L 26.274125179499265 -0.5 L 25 -0.5 Z M 75.27412517949926 0.5 L 76.54825035899853 0.5 L 76.54825035899853 3.5 L 83.54825035899853 0 L 76.54825035899853 -3.5 L 76.54825035899853 -0.5 L 75.27412517949926 -0.5 Z"/><text text-anchor="middle" pointer-events="none" font-size="8px" fill="#000000" x="50.774125179499265" y="3" transform="rotate(180 50.774125179499265 0)" font-family="sans-serif">DESTINA…</text></g><g class="relationship" transform="translate(6.628477495074824 229.1082954943595) rotate(326.4398982718054)"><path class="outline" fill="#A5ABB6" stroke="none" d="M 25 0.5 L 53.25189698774879 0.5 L 53.25189698774879 -0.5 L 25 -0.5 Z M 88.03522981245582 0.5 L 116.28712680020462 0.5 L 116.28712680020462 3.5 L 123.28712680020462 0 L 116.28712680020462 -3.5 L 116.28712680020462 -0.5 L 88.03522981245582 -0.5 Z"/><text text-anchor="middle" pointer-events="none" font-size="8px" fill="#000000" x="70.64356340010231" y="3" font-family="sans-serif">ORIGIN</text></g><g class="relationship" transform="translate(6.628477495074824 229.1082954943595) rotate(191.49064568478542)"><path class="outline" fill="#A5ABB6" stroke="none" d="M 25 0.5 L 49.278243860309345 0.5 L 49.278243860309345 -0.5 L 25 -0.5 Z M 109.19491179854177 0.5 L 133.4731556588511 0.5 L 133.4731556588511 3.5 L 140.4731556588511 0 L 133.4731556588511 -3.5 L 133.4731556588511 -0.5 L 109.19491179854177 -0.5 Z"/><text text-anchor="middle" pointer-events="none" font-size="8px" fill="#000000" x="79.23657782942556" y="3" transform="rotate(180 79.23657782942556 0)" font-family="sans-serif">DESTINATION</text></g><g class="relationship" transform="translate(-2.4818587614437893 169.84980818903077) rotate(350.2844344422972)"><path class="outline" fill="#A5ABB6" stroke="none" d="M 25 0.5 L 46.4131154686397 0.5 L 46.4131154686397 -0.5 L 25 -0.5 Z M 81.19644829334673 0.5 L 102.60956376198644 0.5 L 102.60956376198644 3.5 L 109.60956376198644 0 L 102.60956376198644 -3.5 L 102.60956376198644 -0.5 L 81.19644829334673 -0.5 Z"/><text text-anchor="middle" pointer-events="none" font-size="8px" fill="#000000" x="63.80478188099322" y="3" font-family="sans-serif">ORIGIN</text></g><g class="relationship" transform="translate(-2.4818587614437893 169.84980818903077) rotate(530.2511785051815)"><path class="outline" fill="#A5ABB6" stroke="none" d="M 25 0.5 L 44.18602656376579 0.5 L 44.18602656376579 -0.5 L 25 -0.5 Z M 104.10269450199822 0.5 L 123.28872106576401 0.5 L 123.28872106576401 3.5 L 130.288721065764 0 L 123.28872106576401 -3.5 L 123.28872106576401 -0.5 L 104.10269450199822 -0.5 Z"/><text text-anchor="middle" pointer-events="none" font-size="8px" fill="#000000" x="74.144360532882" y="3" transform="rotate(180 74.144360532882 0)" font-family="sans-serif">DESTINATION</text></g></g><g class="layer nodes"><g class="node" transform="translate(130.19708875752917,147.13348054898495)"><circle class="outline" cx="0" cy="0" r="25" fill="#8DCC93" stroke="#5db665" stroke-width="2px"/><text text-anchor="middle" pointer-events="none" font-family="sans-serif" dy="1.5625" font-size="25" fill="#2A2C34"/><text text-anchor="middle" pointer-events="none" x="0" y="5" font-size="10px" fill="#2A2C34" font-family="sans-serif"> LAX</text></g><g class="node" transform="translate(104.69578708900934,446.2383737615484)"><circle class="outline" cx="0" cy="0" r="25" fill="#8DCC93" stroke="#5db665" stroke-width="2px"/><text text-anchor="middle" pointer-events="none" font-family="sans-serif" dy="1.5625" font-size="25" fill="#2A2C34"/><text text-anchor="middle" pointer-events="none" x="0" y="5" font-size="10px" fill="#2A2C34" font-family="sans-serif"> SMF</text></g><g class="node" transform="translate(65.34815104677571,313.5069446796699)"><circle class="outline" cx="0" cy="0" r="25" fill="#D9C8AE" stroke="#c0a378" stroke-width="2px"/><text text-anchor="middle" pointer-events="none" font-family="sans-serif" dy="1.5625" font-size="25" fill="#2A2C34"/><text text-anchor="middle" pointer-events="none" x="0" y="5" font-size="10px" fill="#2A2C34" font-family="sans-serif"> 11/2/20…</text></g><g class="node" transform="translate(413.0965911632982,184.41139939572253)"><circle class="outline" cx="0" cy="0" r="25" fill="#8DCC93" stroke="#5db665" stroke-width="2px"/><text text-anchor="middle" pointer-events="none" font-family="sans-serif" dy="1.5625" font-size="25" fill="#2A2C34"/><text text-anchor="middle" pointer-events="none" x="0" y="5" font-size="10px" fill="#2A2C34" font-family="sans-serif"> FAT</text></g><g class="node" transform="translate(117.64670917373569,284.1108474781215)"><circle class="outline" cx="0" cy="0" r="25" fill="#D9C8AE" stroke="#c0a378" stroke-width="2px"/><text text-anchor="middle" pointer-events="none" font-family="sans-serif" dy="1.5625" font-size="25" fill="#2A2C34"/><text text-anchor="middle" pointer-events="none" x="0" y="5" font-size="10px" fill="#2A2C34" font-family="sans-serif"> 11/1/20…</text></g><g class="node" transform="translate(171.75020730520038,319.4077836660317)"><circle class="outline" cx="0" cy="0" r="25" fill="#D9C8AE" stroke="#c0a378" stroke-width="2px"/><text text-anchor="middle" pointer-events="none" font-family="sans-serif" dy="1.5625" font-size="25" fill="#2A2C34"/><text text-anchor="middle" pointer-events="none" x="0" y="5" font-size="10px" fill="#2A2C34" font-family="sans-serif"> 11/3/20…</text></g><g class="node" transform="translate(317.2495794677375,248.3924534083716)"><circle class="outline" cx="0" cy="0" r="25" fill="#D9C8AE" stroke="#c0a378" stroke-width="2px"/><text text-anchor="middle" pointer-events="none" font-family="sans-serif" dy="1.5625" font-size="25" fill="#2A2C34"/><text text-anchor="middle" pointer-events="none" x="0" y="5" font-size="10px" fill="#2A2C34" font-family="sans-serif"> 11/2/20…</text></g><g class="node" transform="translate(272.7849428287566,91.60674687854736)"><circle class="outline" cx="0" cy="0" r="25" fill="#D9C8AE" stroke="#c0a378" stroke-width="2px"/><text text-anchor="middle" pointer-events="none" font-family="sans-serif" dy="1.5625" font-size="25" fill="#2A2C34"/><text text-anchor="middle" pointer-events="none" x="0" y="5" font-size="10px" fill="#2A2C34" font-family="sans-serif"> 11/2/20…</text></g><g class="node" transform="translate(308.00145836345797,189.1723832146761)"><circle class="outline" cx="0" cy="0" r="25" fill="#D9C8AE" stroke="#c0a378" stroke-width="2px"/><text text-anchor="middle" pointer-events="none" font-family="sans-serif" dy="1.5625" font-size="25" fill="#2A2C34"/><text text-anchor="middle" pointer-events="none" x="0" y="5" font-size="10px" fill="#2A2C34" font-family="sans-serif"> 11/1/20…</text></g><g class="node" transform="translate(239.97811070445667,-137.7912547069306)"><circle class="outline" cx="0" cy="0" r="25" fill="#8DCC93" stroke="#5db665" stroke-width="2px"/><text text-anchor="middle" pointer-events="none" font-family="sans-serif" dy="1.5625" font-size="25" fill="#2A2C34"/><text text-anchor="middle" pointer-events="none" x="0" y="5" font-size="10px" fill="#2A2C34" font-family="sans-serif"> TUS</text></g><g class="node" transform="translate(36.7276879812931,-158.89430034479412)"><circle class="outline" cx="0" cy="0" r="25" fill="#8DCC93" stroke="#5db665" stroke-width="2px"/><text text-anchor="middle" pointer-events="none" font-family="sans-serif" dy="1.5625" font-size="25" fill="#2A2C34"/><text text-anchor="middle" pointer-events="none" x="0" y="5" font-size="10px" fill="#2A2C34" font-family="sans-serif"> SFO</text></g><g class="node" transform="translate(261.02733930582815,268.6102874284702)"><circle class="outline" cx="0" cy="0" r="25" fill="#D9C8AE" stroke="#c0a378" stroke-width="2px"/><text text-anchor="middle" pointer-events="none" font-family="sans-serif" dy="1.5625" font-size="25" fill="#2A2C34"/><text text-anchor="middle" pointer-events="none" x="0" y="5" font-size="10px" fill="#2A2C34" font-family="sans-serif"> 11/3/20…</text></g><g class="node" transform="translate(251.79311248828208,209.55409037416558)"><circle class="outline" cx="0" cy="0" r="25" fill="#D9C8AE" stroke="#c0a378" stroke-width="2px"/><text text-anchor="middle" pointer-events="none" font-family="sans-serif" dy="1.5625" font-size="25" fill="#2A2C34"/><text text-anchor="middle" pointer-events="none" x="0" y="5" font-size="10px" fill="#2A2C34" font-family="sans-serif"> 11/4/20…</text></g><g class="node" transform="translate(329.1233744456034,71.3725704237183)"><circle class="outline" cx="0" cy="0" r="25" fill="#D9C8AE" stroke="#c0a378" stroke-width="2px"/><text text-anchor="middle" pointer-events="none" font-family="sans-serif" dy="1.5625" font-size="25" fill="#2A2C34"/><text text-anchor="middle" pointer-events="none" x="0" y="5" font-size="10px" fill="#2A2C34" font-family="sans-serif"> 11/1/20…</text></g><g class="node" transform="translate(318.45670023413254,130.26253296721438)"><circle class="outline" cx="0" cy="0" r="25" fill="#D9C8AE" stroke="#c0a378" stroke-width="2px"/><text text-anchor="middle" pointer-events="none" font-family="sans-serif" dy="1.5625" font-size="25" fill="#2A2C34"/><text text-anchor="middle" pointer-events="none" x="0" y="5" font-size="10px" fill="#2A2C34" font-family="sans-serif"> 11/3/20…</text></g><g class="node" transform="translate(-140.18531156823133,-110.3894143909135)"><circle class="outline" cx="0" cy="0" r="25" fill="#8DCC93" stroke="#5db665" stroke-width="2px"/><text text-anchor="middle" pointer-events="none" font-family="sans-serif" dy="1.5625" font-size="25" fill="#2A2C34"/><text text-anchor="middle" pointer-events="none" x="0" y="5" font-size="10px" fill="#2A2C34" font-family="sans-serif"> LAS</text></g><g class="node" transform="translate(-241.00479203761392,-286.88009663701246)"><circle class="outline" cx="0" cy="0" r="25" fill="#8DCC93" stroke="#5db665" stroke-width="2px"/><text text-anchor="middle" pointer-events="none" font-family="sans-serif" dy="1.5625" font-size="25" fill="#2A2C34"/><text text-anchor="middle" pointer-events="none" x="0" y="5" font-size="10px" fill="#2A2C34" font-family="sans-serif"> DEN</text></g><g class="node" transform="translate(117.0721685461568,343.8673436180573)"><circle class="outline" cx="0" cy="0" r="25" fill="#D9C8AE" stroke="#c0a378" stroke-width="2px"/><text text-anchor="middle" pointer-events="none" font-family="sans-serif" dy="1.5625" font-size="25" fill="#2A2C34"/><text text-anchor="middle" pointer-events="none" x="0" y="5" font-size="10px" fill="#2A2C34" font-family="sans-serif"> 11/4/20…</text></g><g class="node selected" transform="translate(174.44427858892115,13.68548447256403)"><circle class="outline" cx="0" cy="0" r="25" fill="#D9C8AE" stroke="#c0a378" stroke-width="2px"/><text text-anchor="middle" pointer-events="none" font-family="sans-serif" dy="1.5625" font-size="25" fill="#2A2C34"/><text text-anchor="middle" pointer-events="none" x="0" y="5" font-size="10px" fill="#2A2C34" font-family="sans-serif"> 11/1/20…</text></g><g class="node" transform="translate(237.02150721877794,2.0436981996229693)"><circle class="outline" cx="0" cy="0" r="25" fill="#D9C8AE" stroke="#c0a378" stroke-width="2px"/><text text-anchor="middle" pointer-events="none" font-family="sans-serif" dy="1.5625" font-size="25" fill="#2A2C34"/><text text-anchor="middle" pointer-events="none" x="0" y="5" font-size="10px" fill="#2A2C34" font-family="sans-serif"> 11/2/20…</text></g><g class="node" transform="translate(137.07337061696794,-33.23546724468936)"><circle class="outline" cx="0" cy="0" r="25" fill="#D9C8AE" stroke="#c0a378" stroke-width="2px"/><text text-anchor="middle" pointer-events="none" font-family="sans-serif" dy="1.5625" font-size="25" fill="#2A2C34"/><text text-anchor="middle" pointer-events="none" x="0" y="5" font-size="10px" fill="#2A2C34" font-family="sans-serif"> 11/2/20…</text></g><g class="node" transform="translate(-155.5281395983967,196.14472808275153)"><circle class="outline" cx="0" cy="0" r="25" fill="#8DCC93" stroke="#5db665" stroke-width="2px"/><text text-anchor="middle" pointer-events="none" font-family="sans-serif" dy="1.5625" font-size="25" fill="#2A2C34"/><text text-anchor="middle" pointer-events="none" x="0" y="5" font-size="10px" fill="#2A2C34" font-family="sans-serif"> ABQ</text></g><g class="node" transform="translate(262.1893488272862,150.502812572023)"><circle class="outline" cx="0" cy="0" r="25" fill="#D9C8AE" stroke="#c0a378" stroke-width="2px"/><text text-anchor="middle" pointer-events="none" font-family="sans-serif" dy="1.5625" font-size="25" fill="#2A2C34"/><text text-anchor="middle" pointer-events="none" x="0" y="5" font-size="10px" fill="#2A2C34" font-family="sans-serif"> 11/4/20…</text></g><g class="node" transform="translate(196.34139456510047,-41.940220151831845)"><circle class="outline" cx="0" cy="0" r="25" fill="#D9C8AE" stroke="#c0a378" stroke-width="2px"/><text text-anchor="middle" pointer-events="none" font-family="sans-serif" dy="1.5625" font-size="25" fill="#2A2C34"/><text text-anchor="middle" pointer-events="none" x="0" y="5" font-size="10px" fill="#2A2C34" font-family="sans-serif"> 11/1/20…</text></g><g class="node" transform="translate(68.14412104066909,-1.737717583531595)"><circle class="outline" cx="0" cy="0" r="25" fill="#D9C8AE" stroke="#c0a378" stroke-width="2px"/><text text-anchor="middle" pointer-events="none" font-family="sans-serif" dy="1.5625" font-size="25" fill="#2A2C34"/><text text-anchor="middle" pointer-events="none" x="0" y="5" font-size="10px" fill="#2A2C34" font-family="sans-serif"> 11/29/2…</text></g><g class="node" transform="translate(-6.890680825641368,5.664240679135317)"><circle class="outline" cx="0" cy="0" r="25" fill="#D9C8AE" stroke="#c0a378" stroke-width="2px"/><text text-anchor="middle" pointer-events="none" font-family="sans-serif" dy="1.5625" font-size="25" fill="#2A2C34"/><text text-anchor="middle" pointer-events="none" x="0" y="5" font-size="10px" fill="#2A2C34" font-family="sans-serif"> 11/29/2…</text></g><g class="node" transform="translate(-245.95304172112412,-177.1526558360133)"><circle class="outline" cx="0" cy="0" r="25" fill="#D9C8AE" stroke="#c0a378" stroke-width="2px"/><text text-anchor="middle" pointer-events="none" font-family="sans-serif" dy="1.5625" font-size="25" fill="#2A2C34"/><text text-anchor="middle" pointer-events="none" x="0" y="5" font-size="10px" fill="#2A2C34" font-family="sans-serif"> 11/29/2…</text></g><g class="node" transform="translate(-67.23603156266475,88.89121377352744)"><circle class="outline" cx="0" cy="0" r="25" fill="#D9C8AE" stroke="#c0a378" stroke-width="2px"/><text text-anchor="middle" pointer-events="none" font-family="sans-serif" dy="1.5625" font-size="25" fill="#2A2C34"/><text text-anchor="middle" pointer-events="none" x="0" y="5" font-size="10px" fill="#2A2C34" font-family="sans-serif"> 11/2/20…</text></g><g class="node" transform="translate(-49.176814209911846,207.34674650392074)"><circle class="outline" cx="0" cy="0" r="25" fill="#D9C8AE" stroke="#c0a378" stroke-width="2px"/><text text-anchor="middle" pointer-events="none" font-family="sans-serif" dy="1.5625" font-size="25" fill="#2A2C34"/><text text-anchor="middle" pointer-events="none" x="0" y="5" font-size="10px" fill="#2A2C34" font-family="sans-serif"> 11/3/20…</text></g><g class="node" transform="translate(-11.487361332253869,110.63778618763638)"><circle class="outline" cx="0" cy="0" r="25" fill="#D9C8AE" stroke="#c0a378" stroke-width="2px"/><text text-anchor="middle" pointer-events="none" font-family="sans-serif" dy="1.5625" font-size="25" fill="#2A2C34"/><text text-anchor="middle" pointer-events="none" x="0" y="5" font-size="10px" fill="#2A2C34" font-family="sans-serif"> 11/1/20…</text></g><g class="node" transform="translate(-40.01788111668061,266.5150958933791)"><circle class="outline" cx="0" cy="0" r="25" fill="#D9C8AE" stroke="#c0a378" stroke-width="2px"/><text text-anchor="middle" pointer-events="none" font-family="sans-serif" dy="1.5625" font-size="25" fill="#2A2C34"/><text text-anchor="middle" pointer-events="none" x="0" y="5" font-size="10px" fill="#2A2C34" font-family="sans-serif"> 11/1/20…</text></g><g class="node" transform="translate(-58.23031433076038,148.02138806786547)"><circle class="outline" cx="0" cy="0" r="25" fill="#D9C8AE" stroke="#c0a378" stroke-width="2px"/><text text-anchor="middle" pointer-events="none" font-family="sans-serif" dy="1.5625" font-size="25" fill="#2A2C34"/><text text-anchor="middle" pointer-events="none" x="0" y="5" font-size="10px" fill="#2A2C34" font-family="sans-serif"> 11/2/20…</text></g><g class="node" transform="translate(6.628477495074824,229.1082954943595)"><circle class="outline" cx="0" cy="0" r="25" fill="#D9C8AE" stroke="#c0a378" stroke-width="2px"/><text text-anchor="middle" pointer-events="none" font-family="sans-serif" dy="1.5625" font-size="25" fill="#2A2C34"/><text text-anchor="middle" pointer-events="none" x="0" y="5" font-size="10px" fill="#2A2C34" font-family="sans-serif"> 11/4/20…</text></g><g class="node" transform="translate(-2.4818587614437893,169.84980818903077)"><circle class="outline" cx="0" cy="0" r="25" fill="#D9C8AE" stroke="#c0a378" stroke-width="2px"/><text text-anchor="middle" pointer-events="none" font-family="sans-serif" dy="1.5625" font-size="25" fill="#2A2C34"/><text text-anchor="middle" pointer-events="none" x="0" y="5" font-size="10px" fill="#2A2C34" font-family="sans-serif"> 11/3/20…</text></g></g></svg>