<svg xmlns="http://www.w3.org/2000/svg" width="161.35519409179688" height="242.87091064453125" viewBox="0.3030529022216797 -20.877090454101562 161.35519409179688 242.87091064453125"><title>Neo4j Graph Visualization</title><desc>Created using Neo4j (http://www.neo4j.com/)</desc><g class="layer relationships"><g class="relationship" transform="translate(132.658244114976 8.122909343585373) rotate(520.3088278072653)"><path class="outline" fill="#A5ABB6" stroke="none" d="M 21.40063509461097,12.933012701892217 L 21.90063509461097,12.06698729810778 A 59.964869418173755 59.964869418173755 0 0 0 39.31910572928933,18.76977120212794 L 39.1095836508405,19.747575118382365 A 60.964869418173755 60.964869418173755 0 0 1 21.40063509461097,12.933012701892217 Z M 60.96061794330123,20.42115409451906 L 60.81171992668549,19.432301536931277 A 59.964869418173755 59.964869418173755 0 0 0 78.60996566418065,13.81510650890539 L 77.27283796992526,11.129573129992506 L 85.09906483068661,11.14273078546162 L 80.39280258985451,17.395817680789236 L 79.05567489559913,14.710284301876353 A 60.964869418173755 60.964869418173755 0 0 1 60.96061794330123,20.42115409451906"/><text text-anchor="middle" pointer-events="none" font-size="8px" fill="#000000" x="50.02006746438891" y="23.57204887154976" transform="rotate(180 50.02006746438891 20.57204887154976)" font-family="sans-serif">trek</text></g><g class="relationship" transform="translate(31.464812087201246 44.337814453106326) rotate(451.160666997358)"><path class="outline" fill="#A5ABB6" stroke="none" d="M 25 0.5 L 38.96077509551677 0.5 L 38.96077509551677 -0.5 L 25 -0.5 Z M 60.760775286251636 0.5 L 74.72155038176841 0.5 L 74.72155038176841 3.5 L 81.72155038176841 0 L 74.72155038176841 -3.5 L 74.72155038176841 -0.5 L 60.760775286251636 -0.5 Z"/><text text-anchor="middle" pointer-events="none" font-size="8px" fill="#000000" x="49.860775190884205" y="3" transform="rotate(180 49.860775190884205 0)" font-family="sans-serif">trek</text></g><g class="relationship" transform="translate(29.303052341433805 151.03746820460597) rotate(382.9901650410752)"><path class="outline" fill="#A5ABB6" stroke="none" d="M 25 0.5 L 39.31126464134673 0.5 L 39.31126464134673 -0.5 L 25 -0.5 Z M 61.111264832081595 0.5 L 75.42252947342833 0.5 L 75.42252947342833 3.5 L 82.42252947342833 0 L 75.42252947342833 -3.5 L 75.42252947342833 -0.5 L 61.111264832081595 -0.5 Z"/><text text-anchor="middle" pointer-events="none" font-size="8px" fill="#000000" x="50.21126473671416" y="3" font-family="sans-serif">trek</text></g><g class="relationship" transform="translate(132.658244114976 8.122909343585373) rotate(520.3088278072653)"><path class="outline" fill="#A5ABB6" stroke="none" d="M 25 0.5 L 38.23925482748034 0.5 L 38.23925482748034 -0.5 L 25 -0.5 Z M 62.23925482748034 0.5 L 75.47850965496067 0.5 L 75.47850965496067 3.5 L 82.47850965496067 0 L 75.47850965496067 -3.5 L 75.47850965496067 -0.5 L 62.23925482748034 -0.5 Z"/><text text-anchor="middle" pointer-events="none" font-size="8px" fill="#000000" x="50.23925482748034" y="3" transform="rotate(180 50.23925482748034 0)" font-family="sans-serif">road</text></g><g class="relationship" transform="translate(132.658244114976 8.122909343585373) rotate(520.3088278072653)"><path class="outline" fill="#A5ABB6" stroke="none" d="M 21.40063509461097,-12.933012701892217 L 21.90063509461097,-12.06698729810778 A 59.964869418173755 59.964869418173755 0 0 1 22.241415773697838,-12.262251880366101 L 21.747098779137414,-13.131533600459619 A 60.964869418173755 60.964869418173755 0 0 0 21.40063509461097,-12.933012701892217 Z M 78.69764145987654,-14.887088404680348 L 78.25780501124493,-13.989010513595645 A 59.964869418173755 59.964869418173755 0 0 1 78.60996566418065,-13.81510650890539 L 77.27283796992526,-11.129573129992506 L 85.09906483068661,-11.14273078546162 L 80.39280258985451,-17.395817680789236 L 79.05567489559913,-14.710284301876353 A 60.964869418173755 60.964869418173755 0 0 0 78.69764145987654,-14.887088404680348"/><text text-anchor="middle" pointer-events="none" font-size="8px" fill="#000000" x="50.020067464388895" y="-17.57204887154976" transform="rotate(180 50.020067464388895 -20.57204887154976)" font-family="sans-serif">PublicTrans…</text></g></g><g class="layer nodes"><g class="node" transform="translate(132.658244114976,8.122909343585373)"><circle class="outline" cx="0" cy="0" r="25" fill="#57C7E3" stroke="#23b3d7" stroke-width="2px"/><text text-anchor="middle" pointer-events="none" font-family="sans-serif" dy="1.5625" font-size="25" fill="#2A2C34"/><text text-anchor="middle" pointer-events="none" x="0" y="5" font-size="10px" fill="#2A2C34" font-family="sans-serif"> Darjeeli…</text></g><g class="node" transform="translate(128.19321545785957,192.9938202538045)"><circle class="outline" cx="0" cy="0" r="25" fill="#F79767" stroke="#f36924" stroke-width="2px"/><text text-anchor="middle" pointer-events="none" font-family="sans-serif" dy="1.5625" font-size="25" fill="#FFFFFF"/><text text-anchor="middle" pointer-events="none" x="0" y="5" font-size="10px" fill="#FFFFFF" font-family="sans-serif"> Sandak…</text></g><g class="node" transform="translate(31.464812087201246,44.337814453106326)"><circle class="outline" cx="0" cy="0" r="25" fill="#57C7E3" stroke="#23b3d7" stroke-width="2px"/><text text-anchor="middle" pointer-events="none" font-family="sans-serif" dy="1.5625" font-size="25" fill="#2A2C34"/><text text-anchor="middle" pointer-events="none" x="0" y="5" font-size="10px" fill="#2A2C34" font-family="sans-serif"> Rimbik</text></g><g class="node" transform="translate(29.303052341433805,151.03746820460597)"><circle class="outline" cx="0" cy="0" r="25" fill="#F16667" stroke="#eb2728" stroke-width="2px"/><text text-anchor="middle" pointer-events="none" font-family="sans-serif" dy="1.5625" font-size="25" fill="#FFFFFF"/><text text-anchor="middle" pointer-events="none" x="0" y="5" font-size="10px" fill="#FFFFFF" font-family="sans-serif"> BhikeB…</text></g></g></svg>