<svg xmlns="http://www.w3.org/2000/svg" width="990.6544799804688" height="704.1432495117188" viewBox="-316.827880859375 -248.4423828125 990.6544799804688 704.1432495117188"><title>Neo4j Graph Visualization</title><desc>Created using Neo4j (http://www.neo4j.com/)</desc><g class="layer relationships"><g class="relationship" transform="translate(-89.85360631790758 237.45918314648986) rotate(197.77945843804662)"><path class="outline" fill="#A5ABB6" stroke="none" d="M 25 0.5 L 82.16401052385474 0.5 L 82.16401052385474 -0.5 L 25 -0.5 Z M 116.94734334856177 0.5 L 174.11135387241652 0.5 L 174.11135387241652 3.5 L 181.11135387241652 0 L 174.11135387241652 -3.5 L 174.11135387241652 -0.5 L 116.94734334856177 -0.5 Z"/><text text-anchor="middle" pointer-events="none" font-size="8px" fill="#000000" x="99.55567693620826" y="3" transform="rotate(180 99.55567693620826 0)" font-family="sans-serif">ORIGIN</text></g><g class="relationship" transform="translate(-89.85360631790758 237.45918314648986) rotate(367.10610309455456)"><path class="outline" fill="#A5ABB6" stroke="none" d="M 25 0.5 L 79.18346054885295 0.5 L 79.18346054885295 -0.5 L 25 -0.5 Z M 139.10012848708539 0.5 L 193.28358903593832 0.5 L 193.28358903593832 3.5 L 200.28358903593832 0 L 193.28358903593832 -3.5 L 193.28358903593832 -0.5 L 139.10012848708539 -0.5 Z"/><text text-anchor="middle" pointer-events="none" font-size="8px" fill="#000000" x="109.14179451796916" y="3" font-family="sans-serif">DESTINATION</text></g><g class="relationship" transform="translate(172.97272237067003 426.70079145810377) rotate(256.32183888428074)"><path class="outline" fill="#A5ABB6" stroke="none" d="M 25 0.5 L 62.149647070624795 0.5 L 62.149647070624795 -0.5 L 25 -0.5 Z M 96.93297989533183 0.5 L 134.08262696595662 0.5 L 134.08262696595662 3.5 L 141.08262696595662 0 L 134.08262696595662 -3.5 L 134.08262696595662 -0.5 L 96.93297989533183 -0.5 Z"/><text text-anchor="middle" pointer-events="none" font-size="8px" fill="#000000" x="79.54131348297831" y="3" transform="rotate(180 79.54131348297831 0)" font-family="sans-serif">ORIGIN</text></g><g class="relationship" transform="translate(172.97272237067003 426.70079145810377) rotate(306.6370496583997)"><path class="outline" fill="#A5ABB6" stroke="none" d="M 25 0.5 L 25.76657844893431 0.5 L 25.76657844893431 -0.5 L 25 -0.5 Z M 56.06657768599486 0.5 L 56.83315613492917 0.5 L 56.83315613492917 3.5 L 63.83315613492917 0 L 56.83315613492917 -3.5 L 56.83315613492917 -0.5 L 56.06657768599486 -0.5 Z"/><text text-anchor="middle" pointer-events="none" font-size="8px" fill="#000000" x="40.916578067464584" y="3" font-family="sans-serif">DES…</text></g><g class="relationship" transform="translate(363.2135380175388 231.02990292816443) rotate(497.8101704520445)"><path class="outline" fill="#A5ABB6" stroke="none" d="M 25 0.5 L 59.14914425977139 0.5 L 59.14914425977139 -0.5 L 25 -0.5 Z M 119.06581219800381 0.5 L 153.2149564577752 0.5 L 153.2149564577752 3.5 L 160.2149564577752 0 L 153.2149564577752 -3.5 L 153.2149564577752 -0.5 L 119.06581219800381 -0.5 Z"/><text text-anchor="middle" pointer-events="none" font-size="8px" fill="#000000" x="89.1074782288876" y="3" transform="rotate(180 89.1074782288876 0)" font-family="sans-serif">DESTINATION</text></g><g class="relationship" transform="translate(363.2135380175388 231.02990292816443) rotate(294.2543783884728)"><path class="outline" fill="#A5ABB6" stroke="none" d="M 25 0.5 L 71.33252087639768 0.5 L 71.33252087639768 -0.5 L 25 -0.5 Z M 106.11585370110471 0.5 L 152.4483745775024 0.5 L 152.4483745775024 3.5 L 159.4483745775024 0 L 152.4483745775024 -3.5 L 152.4483745775024 -0.5 L 106.11585370110471 -0.5 Z"/><text text-anchor="middle" pointer-events="none" font-size="8px" fill="#000000" x="88.7241872887512" y="3" font-family="sans-serif">ORIGIN</text></g><g class="relationship" transform="translate(552.2762761234578 74.04836026564553) rotate(185.63865470235623)"><path class="outline" fill="#A5ABB6" stroke="none" d="M 25 0.5 L 36.030491726715326 0.5 L 36.030491726715326 -0.5 L 25 -0.5 Z M 70.81382455142236 0.5 L 81.84431627813768 0.5 L 81.84431627813768 3.5 L 88.84431627813768 0 L 81.84431627813768 -3.5 L 81.84431627813768 -0.5 L 70.81382455142236 -0.5 Z"/><text text-anchor="middle" pointer-events="none" font-size="8px" fill="#000000" x="53.42215813906884" y="3" transform="rotate(180 53.42215813906884 0)" font-family="sans-serif">ORIGIN</text></g><g class="relationship" transform="translate(552.2762761234578 74.04836026564553) rotate(391.6360115314403)"><path class="outline" fill="#A5ABB6" stroke="none" d="M 25 0.5 L 26.352007721977877 0.5 L 26.352007721977877 -0.5 L 25 -0.5 Z M 75.35200772197788 0.5 L 76.70401544395575 0.5 L 76.70401544395575 3.5 L 83.70401544395575 0 L 76.70401544395575 -3.5 L 76.70401544395575 -0.5 L 75.35200772197788 -0.5 Z"/><text text-anchor="middle" pointer-events="none" font-size="8px" fill="#000000" x="50.85200772197788" y="3" font-family="sans-serif">DESTINA…</text></g><g class="relationship" transform="translate(527.364514953123 191.28000822996773) rotate(235.46277215504296)"><path class="outline" fill="#A5ABB6" stroke="none" d="M 25 0.5 L 57.05437097025187 0.5 L 57.05437097025187 -0.5 L 25 -0.5 Z M 91.8377037949589 0.5 L 123.89207476521077 0.5 L 123.89207476521077 3.5 L 130.89207476521077 0 L 123.89207476521077 -3.5 L 123.89207476521077 -0.5 L 91.8377037949589 -0.5 Z"/><text text-anchor="middle" pointer-events="none" font-size="8px" fill="#000000" x="74.44603738260538" y="3" transform="rotate(180 74.44603738260538 0)" font-family="sans-serif">ORIGIN</text></g><g class="relationship" transform="translate(527.364514953123 191.28000822996773) rotate(332.859151467518)"><path class="outline" fill="#A5ABB6" stroke="none" d="M 25 0.5 L 32.53991906184491 0.5 L 32.53991906184491 -0.5 L 25 -0.5 Z M 92.45658700007733 0.5 L 99.99650606192225 0.5 L 99.99650606192225 3.5 L 106.99650606192225 0 L 99.99650606192225 -3.5 L 99.99650606192225 -0.5 L 92.45658700007733 -0.5 Z"/><text text-anchor="middle" pointer-events="none" font-size="8px" fill="#000000" x="62.49825303096112" y="3" font-family="sans-serif">DESTINATION</text></g><g class="relationship" transform="translate(537.7030035948145 132.27238938185235) rotate(215.1108811527784)"><path class="outline" fill="#A5ABB6" stroke="none" d="M 25 0.5 L 39.44776019265806 0.5 L 39.44776019265806 -0.5 L 25 -0.5 Z M 74.23109301736508 0.5 L 88.67885321002315 0.5 L 88.67885321002315 3.5 L 95.67885321002315 0 L 88.67885321002315 -3.5 L 88.67885321002315 -0.5 L 74.23109301736508 -0.5 Z"/><text text-anchor="middle" pointer-events="none" font-size="8px" fill="#000000" x="56.839426605011575" y="3" transform="rotate(180 56.839426605011575 0)" font-family="sans-serif">ORIGIN</text></g><g class="relationship" transform="translate(537.7030035948145 132.27238938185235) rotate(359.35473533992763)"><path class="outline" fill="#A5ABB6" stroke="none" d="M 25 0.5 L 25.56519284429492 0.5 L 25.56519284429492 -0.5 L 25 -0.5 Z M 74.56519284429493 0.5 L 75.13038568858984 0.5 L 75.13038568858984 3.5 L 82.13038568858984 0 L 75.13038568858984 -3.5 L 75.13038568858984 -0.5 L 74.56519284429493 -0.5 Z"/><text text-anchor="middle" pointer-events="none" font-size="8px" fill="#000000" x="50.06519284429492" y="3" font-family="sans-serif">DESTINA…</text></g><g class="relationship" transform="translate(598.7699205208373 36.16887051809623) rotate(530.515835304082)"><path class="outline" fill="#A5ABB6" stroke="none" d="M 25 0.5 L 60.109071451688536 0.5 L 60.109071451688536 -0.5 L 25 -0.5 Z M 94.89240427639557 0.5 L 130.0014757280841 0.5 L 130.0014757280841 3.5 L 137.0014757280841 0 L 130.0014757280841 -3.5 L 130.0014757280841 -0.5 L 94.89240427639557 -0.5 Z"/><text text-anchor="middle" pointer-events="none" font-size="8px" fill="#000000" x="77.50073786404205" y="3" transform="rotate(180 77.50073786404205 0)" font-family="sans-serif">ORIGIN</text></g><g class="relationship" transform="translate(598.7699205208373 36.16887051809623) rotate(424.1111664266368)"><path class="outline" fill="#A5ABB6" stroke="none" d="M 25 0.5 L 27.47484009154237 0.5 L 27.47484009154237 -0.5 L 25 -0.5 Z M 71.0081729162494 0.5 L 73.48301300779177 0.5 L 73.48301300779177 3.5 L 80.48301300779177 0 L 73.48301300779177 -3.5 L 73.48301300779177 -0.5 L 71.0081729162494 -0.5 Z"/><text text-anchor="middle" pointer-events="none" font-size="8px" fill="#000000" x="49.241506503895884" y="3" font-family="sans-serif">DESTIN…</text></g><g class="relationship" transform="translate(547.6143217392041 5.074099075894621) rotate(511.98841850411304)"><path class="outline" fill="#A5ABB6" stroke="none" d="M 25 0.5 L 40.63134333762446 0.5 L 40.63134333762446 -0.5 L 25 -0.5 Z M 75.41467616233149 0.5 L 91.04601949995595 0.5 L 91.04601949995595 3.5 L 98.04601949995595 0 L 91.04601949995595 -3.5 L 91.04601949995595 -0.5 L 75.41467616233149 -0.5 Z"/><text text-anchor="middle" pointer-events="none" font-size="8px" fill="#000000" x="58.02300974997797" y="3" transform="rotate(180 58.02300974997797 0)" font-family="sans-serif">ORIGIN</text></g><g class="relationship" transform="translate(547.6143217392041 5.074099075894621) rotate(412.3470801960495)"><path class="outline" fill="#A5ABB6" stroke="none" d="M 25 0.5 L 46.10950409563938 0.5 L 46.10950409563938 -0.5 L 25 -0.5 Z M 106.0261720338718 0.5 L 127.13567612951118 0.5 L 127.13567612951118 3.5 L 134.13567612951118 0 L 127.13567612951118 -3.5 L 127.13567612951118 -0.5 L 106.0261720338718 -0.5 Z"/><text text-anchor="middle" pointer-events="none" font-size="8px" fill="#000000" x="76.06783806475559" y="3" font-family="sans-serif">DESTINATION</text></g><g class="relationship" transform="translate(-247.1999103947492 341.87068898704894) rotate(256.9072253915276)"><path class="outline" fill="#A5ABB6" stroke="none" d="M 25 0.5 L 65.01574497930325 0.5 L 65.01574497930325 -0.5 L 25 -0.5 Z M 99.79907780401028 0.5 L 139.81482278331353 0.5 L 139.81482278331353 3.5 L 146.81482278331353 0 L 139.81482278331353 -3.5 L 139.81482278331353 -0.5 L 99.79907780401028 -0.5 Z"/><text text-anchor="middle" pointer-events="none" font-size="8px" fill="#000000" x="82.40741139165677" y="3" transform="rotate(180 82.40741139165677 0)" font-family="sans-serif">ORIGIN</text></g><g class="relationship" transform="translate(-247.1999103947492 341.87068898704894) rotate(353.9308454160531)"><path class="outline" fill="#A5ABB6" stroke="none" d="M 25 0.5 L 53.76514804772178 0.5 L 53.76514804772178 -0.5 L 25 -0.5 Z M 113.6818159859542 0.5 L 142.44696403367598 0.5 L 142.44696403367598 3.5 L 149.44696403367598 0 L 142.44696403367598 -3.5 L 142.44696403367598 -0.5 L 113.6818159859542 -0.5 Z"/><text text-anchor="middle" pointer-events="none" font-size="8px" fill="#000000" x="83.72348201683799" y="3" font-family="sans-serif">DESTINATION</text></g><g class="relationship" transform="translate(66.54712090168172 407.92562782751503) rotate(211.06344905305207)"><path class="outline" fill="#A5ABB6" stroke="none" d="M 25 0.5 L 60.98927372518055 0.5 L 60.98927372518055 -0.5 L 25 -0.5 Z M 95.77260654988758 0.5 L 131.76188027506814 0.5 L 131.76188027506814 3.5 L 138.76188027506814 0 L 131.76188027506814 -3.5 L 131.76188027506814 -0.5 L 95.77260654988758 -0.5 Z"/><text text-anchor="middle" pointer-events="none" font-size="8px" fill="#000000" x="78.38094013753407" y="3" transform="rotate(180 78.38094013753407 0)" font-family="sans-serif">ORIGIN</text></g><g class="relationship" transform="translate(66.54712090168172 407.92562782751503) rotate(341.77165595586166)"><path class="outline" fill="#A5ABB6" stroke="none" d="M 25 0.5 L 50.47160874437985 0.5 L 50.47160874437985 -0.5 L 25 -0.5 Z M 110.38827668261227 0.5 L 135.85988542699212 0.5 L 135.85988542699212 3.5 L 142.85988542699212 0 L 135.85988542699212 -3.5 L 135.85988542699212 -0.5 L 110.38827668261227 -0.5 Z"/><text text-anchor="middle" pointer-events="none" font-size="8px" fill="#000000" x="80.42994271349606" y="3" font-family="sans-serif">DESTINATION</text></g><g class="relationship" transform="translate(-243.66058534712496 282.0743168252389) rotate(248.4564794691442)"><path class="outline" fill="#A5ABB6" stroke="none" d="M 25 0.5 L 36.92337818923258 0.5 L 36.92337818923258 -0.5 L 25 -0.5 Z M 71.70671101393961 0.5 L 83.63008920317219 0.5 L 83.63008920317219 3.5 L 90.63008920317219 0 L 83.63008920317219 -3.5 L 83.63008920317219 -0.5 L 71.70671101393961 -0.5 Z"/><text text-anchor="middle" pointer-events="none" font-size="8px" fill="#000000" x="54.315044601586095" y="3" transform="rotate(180 54.315044601586095 0)" font-family="sans-serif">ORIGIN</text></g><g class="relationship" transform="translate(-243.66058534712496 282.0743168252389) rotate(373.67704381960493)"><path class="outline" fill="#A5ABB6" stroke="none" d="M 25 0.5 L 53.986181037559135 0.5 L 53.986181037559135 -0.5 L 25 -0.5 Z M 113.90284897579156 0.5 L 142.8890300133507 0.5 L 142.8890300133507 3.5 L 149.8890300133507 0 L 142.8890300133507 -3.5 L 142.8890300133507 -0.5 L 113.90284897579156 -0.5 Z"/><text text-anchor="middle" pointer-events="none" font-size="8px" fill="#000000" x="83.94451500667535" y="3" font-family="sans-serif">DESTINATION</text></g><g class="relationship" transform="translate(-193.67205786574928 315.0562601663117) rotate(236.66150314966137)"><path class="outline" fill="#A5ABB6" stroke="none" d="M 25 0.5 L 63.21627505166121 0.5 L 63.21627505166121 -0.5 L 25 -0.5 Z M 97.99960787636824 0.5 L 136.21588292802946 0.5 L 136.21588292802946 3.5 L 143.21588292802946 0 L 136.21588292802946 -3.5 L 136.21588292802946 -0.5 L 97.99960787636824 -0.5 Z"/><text text-anchor="middle" pointer-events="none" font-size="8px" fill="#000000" x="80.60794146401473" y="3" transform="rotate(180 80.60794146401473 0)" font-family="sans-serif">ORIGIN</text></g><g class="relationship" transform="translate(-193.67205786574928 315.0562601663117) rotate(363.99203931029626)"><path class="outline" fill="#A5ABB6" stroke="none" d="M 25 0.5 L 26.658193611374585 0.5 L 26.658193611374585 -0.5 L 25 -0.5 Z M 86.57486154960701 0.5 L 88.23305516098159 0.5 L 88.23305516098159 3.5 L 95.23305516098159 0 L 88.23305516098159 -3.5 L 88.23305516098159 -0.5 L 86.57486154960701 -0.5 Z"/><text text-anchor="middle" pointer-events="none" font-size="8px" fill="#000000" x="56.616527580490796" y="3" font-family="sans-serif">DESTINATION</text></g><g class="relationship" transform="translate(-190.02276885968064 255.18658250767592) rotate(220.00994817801433)"><path class="outline" fill="#A5ABB6" stroke="none" d="M 25 0.5 L 41.84104923811734 0.5 L 41.84104923811734 -0.5 L 25 -0.5 Z M 76.62438206282437 0.5 L 93.46543130094172 0.5 L 93.46543130094172 3.5 L 100.46543130094172 0 L 93.46543130094172 -3.5 L 93.46543130094172 -0.5 L 76.62438206282437 -0.5 Z"/><text text-anchor="middle" pointer-events="none" font-size="8px" fill="#000000" x="59.23271565047086" y="3" transform="rotate(180 59.23271565047086 0)" font-family="sans-serif">ORIGIN</text></g><g class="relationship" transform="translate(-190.02276885968064 255.18658250767592) rotate(390.4043641515574)"><path class="outline" fill="#A5ABB6" stroke="none" d="M 25 0.5 L 33.95929092909236 0.5 L 33.95929092909236 -0.5 L 25 -0.5 Z M 93.87595886732478 0.5 L 102.83524979641714 0.5 L 102.83524979641714 3.5 L 109.83524979641714 0 L 102.83524979641714 -3.5 L 102.83524979641714 -0.5 L 93.87595886732478 -0.5 Z"/><text text-anchor="middle" pointer-events="none" font-size="8px" fill="#000000" x="63.91762489820857" y="3" font-family="sans-serif">DESTINATION</text></g><g class="relationship" transform="translate(209.94481621241232 111.86936789416517) rotate(476.420238146621)"><path class="outline" fill="#A5ABB6" stroke="none" d="M 25 0.5 L 52.219861379732194 0.5 L 52.219861379732194 -0.5 L 25 -0.5 Z M 112.13652931796462 0.5 L 139.3563906976968 0.5 L 139.3563906976968 3.5 L 146.3563906976968 0 L 139.3563906976968 -3.5 L 139.3563906976968 -0.5 L 112.13652931796462 -0.5 Z"/><text text-anchor="middle" pointer-events="none" font-size="8px" fill="#000000" x="82.1781953488484" y="3" transform="rotate(180 82.1781953488484 0)" font-family="sans-serif">DESTINATION</text></g><g class="relationship" transform="translate(209.94481621241232 111.86936789416517) rotate(250.5732281290745)"><path class="outline" fill="#A5ABB6" stroke="none" d="M 25 0.5 L 62.685891957199146 0.5 L 62.685891957199146 -0.5 L 25 -0.5 Z M 97.46922478190618 0.5 L 135.15511673910532 0.5 L 135.15511673910532 3.5 L 142.15511673910532 0 L 135.15511673910532 -3.5 L 135.15511673910532 -0.5 L 97.46922478190618 -0.5 Z"/><text text-anchor="middle" pointer-events="none" font-size="8px" fill="#000000" x="80.07755836955266" y="3" transform="rotate(180 80.07755836955266 0)" font-family="sans-serif">ORIGIN</text></g><g class="relationship" transform="translate(307.47576823016624 -20.77371324994853) rotate(189.27082227771325)"><path class="outline" fill="#A5ABB6" stroke="none" d="M 25 0.5 L 44.11850798836612 0.5 L 44.11850798836612 -0.5 L 25 -0.5 Z M 104.03517592659854 0.5 L 123.15368391496466 0.5 L 123.15368391496466 3.5 L 130.15368391496466 0 L 123.15368391496466 -3.5 L 123.15368391496466 -0.5 L 104.03517592659854 -0.5 Z"/><text text-anchor="middle" pointer-events="none" font-size="8px" fill="#000000" x="74.07684195748233" y="3" transform="rotate(180 74.07684195748233 0)" font-family="sans-serif">DESTINATION</text></g><g class="relationship" transform="translate(307.47576823016624 -20.77371324994853) rotate(392.4557082241657)"><path class="outline" fill="#A5ABB6" stroke="none" d="M 25 0.5 L 57.033212355548216 0.5 L 57.033212355548216 -0.5 L 25 -0.5 Z M 91.81654518025525 0.5 L 123.84975753580346 0.5 L 123.84975753580346 3.5 L 130.84975753580346 0 L 123.84975753580346 -3.5 L 123.84975753580346 -0.5 L 91.81654518025525 -0.5 Z"/><text text-anchor="middle" pointer-events="none" font-size="8px" fill="#000000" x="74.42487876790173" y="3" font-family="sans-serif">ORIGIN</text></g><g class="relationship" transform="translate(333.0927972359709 -74.85788285316283) rotate(530.7567462380019)"><path class="outline" fill="#A5ABB6" stroke="none" d="M 25 0.5 L 57.08944179459729 0.5 L 57.08944179459729 -0.5 L 25 -0.5 Z M 117.00610973282971 0.5 L 149.095551527427 0.5 L 149.095551527427 3.5 L 156.095551527427 0 L 149.095551527427 -3.5 L 149.095551527427 -0.5 L 117.00610973282971 -0.5 Z"/><text text-anchor="middle" pointer-events="none" font-size="8px" fill="#000000" x="87.0477757637135" y="3" transform="rotate(180 87.0477757637135 0)" font-family="sans-serif">DESTINATION</text></g><g class="relationship" transform="translate(333.0927972359709 -74.85788285316283) rotate(412.44418253966194)"><path class="outline" fill="#A5ABB6" stroke="none" d="M 25 0.5 L 65.96978229976702 0.5 L 65.96978229976702 -0.5 L 25 -0.5 Z M 100.75311512447405 0.5 L 141.72289742424107 0.5 L 141.72289742424107 3.5 L 148.72289742424107 0 L 141.72289742424107 -3.5 L 141.72289742424107 -0.5 L 100.75311512447405 -0.5 Z"/><text text-anchor="middle" pointer-events="none" font-size="8px" fill="#000000" x="83.36144871212053" y="3" font-family="sans-serif">ORIGIN</text></g><g class="relationship" transform="translate(150.73246029441285 102.83347277176837) rotate(455.9839677550887)"><path class="outline" fill="#A5ABB6" stroke="none" d="M 25 0.5 L 48.23425410644177 0.5 L 48.23425410644177 -0.5 L 25 -0.5 Z M 108.15092204467419 0.5 L 131.38517615111596 0.5 L 131.38517615111596 3.5 L 138.38517615111596 0 L 131.38517615111596 -3.5 L 131.38517615111596 -0.5 L 108.15092204467419 -0.5 Z"/><text text-anchor="middle" pointer-events="none" font-size="8px" fill="#000000" x="78.19258807555798" y="3" transform="rotate(180 78.19258807555798 0)" font-family="sans-serif">DESTINATION</text></g><g class="relationship" transform="translate(150.73246029441285 102.83347277176837) rotate(271.39402310622256)"><path class="outline" fill="#A5ABB6" stroke="none" d="M 25 0.5 L 53.43164978785762 0.5 L 53.43164978785762 -0.5 L 25 -0.5 Z M 88.21498261256465 0.5 L 116.64663240042228 0.5 L 116.64663240042228 3.5 L 123.64663240042228 0 L 116.64663240042228 -3.5 L 116.64663240042228 -0.5 L 88.21498261256465 -0.5 Z"/><text text-anchor="middle" pointer-events="none" font-size="8px" fill="#000000" x="70.82331620021114" y="3" font-family="sans-serif">ORIGIN</text></g><g class="relationship" transform="translate(297.8149208481105 38.37026219378551) rotate(210.39058305113514)"><path class="outline" fill="#A5ABB6" stroke="none" d="M 25 0.5 L 49.70114253116161 0.5 L 49.70114253116161 -0.5 L 25 -0.5 Z M 109.61781046939403 0.5 L 134.31895300055564 0.5 L 134.31895300055564 3.5 L 141.31895300055564 0 L 134.31895300055564 -3.5 L 134.31895300055564 -0.5 L 109.61781046939403 -0.5 Z"/><text text-anchor="middle" pointer-events="none" font-size="8px" fill="#000000" x="79.65947650027782" y="3" transform="rotate(180 79.65947650027782 0)" font-family="sans-serif">DESTINATION</text></g><g class="relationship" transform="translate(297.8149208481105 38.37026219378551) rotate(369.84274539734497)"><path class="outline" fill="#A5ABB6" stroke="none" d="M 25 0.5 L 50.74675179244669 0.5 L 50.74675179244669 -0.5 L 25 -0.5 Z M 85.53008461715372 0.5 L 111.2768364096004 0.5 L 111.2768364096004 3.5 L 118.2768364096004 0 L 111.2768364096004 -3.5 L 111.2768364096004 -0.5 L 85.53008461715372 -0.5 Z"/><text text-anchor="middle" pointer-events="none" font-size="8px" fill="#000000" x="68.1384182048002" y="3" font-family="sans-serif">ORIGIN</text></g><g class="relationship" transform="translate(72.9281714540676 158.96457527759839) rotate(491.72495563317875)"><path class="outline" fill="#A5ABB6" stroke="none" d="M 25 0.5 L 76.71947436967737 0.5 L 76.71947436967737 -0.5 L 25 -0.5 Z M 136.63614230790978 0.5 L 188.35561667758716 0.5 L 188.35561667758716 3.5 L 195.35561667758716 0 L 188.35561667758716 -3.5 L 188.35561667758716 -0.5 L 136.63614230790978 -0.5 Z"/><text text-anchor="middle" pointer-events="none" font-size="8px" fill="#000000" x="106.67780833879358" y="3" transform="rotate(180 106.67780833879358 0)" font-family="sans-serif">DESTINATION</text></g><g class="relationship" transform="translate(72.9281714540676 158.96457527759839) rotate(291.6872178940021)"><path class="outline" fill="#A5ABB6" stroke="none" d="M 25 0.5 L 89.27322151222359 0.5 L 89.27322151222359 -0.5 L 25 -0.5 Z M 124.05655433693062 0.5 L 188.3297758491542 0.5 L 188.3297758491542 3.5 L 195.3297758491542 0 L 188.3297758491542 -3.5 L 188.3297758491542 -0.5 L 124.05655433693062 -0.5 Z"/><text text-anchor="middle" pointer-events="none" font-size="8px" fill="#000000" x="106.6648879245771" y="3" font-family="sans-serif">ORIGIN</text></g><g class="relationship" transform="translate(23.0142265646979 125.91218496097375) rotate(476.09616768025654)"><path class="outline" fill="#A5ABB6" stroke="none" d="M 25 0.5 L 76.50932098474946 0.5 L 76.50932098474946 -0.5 L 25 -0.5 Z M 136.4259889229819 0.5 L 187.93530990773135 0.5 L 187.93530990773135 3.5 L 194.93530990773135 0 L 187.93530990773135 -3.5 L 187.93530990773135 -0.5 L 136.4259889229819 -0.5 Z"/><text text-anchor="middle" pointer-events="none" font-size="8px" fill="#000000" x="106.46765495386568" y="3" transform="rotate(180 106.46765495386568 0)" font-family="sans-serif">DESTINATION</text></g><g class="relationship" transform="translate(23.0142265646979 125.91218496097375) rotate(307.41562234714286)"><path class="outline" fill="#A5ABB6" stroke="none" d="M 25 0.5 L 87.18612390004002 0.5 L 87.18612390004002 -0.5 L 25 -0.5 Z M 121.96945672474705 0.5 L 184.15558062478706 0.5 L 184.15558062478706 3.5 L 191.15558062478706 0 L 184.15558062478706 -3.5 L 184.15558062478706 -0.5 L 121.96945672474705 -0.5 Z"/><text text-anchor="middle" pointer-events="none" font-size="8px" fill="#000000" x="104.57779031239353" y="3" font-family="sans-serif">ORIGIN</text></g><g class="relationship" transform="translate(-203.71345749790748 -33.90065579306754) rotate(471.573123944755)"><path class="outline" fill="#A5ABB6" stroke="none" d="M 25 0.5 L 91.16980855740132 0.5 L 91.16980855740132 -0.5 L 25 -0.5 Z M 125.95314138210836 0.5 L 192.12294993950968 0.5 L 192.12294993950968 3.5 L 199.12294993950968 0 L 192.12294993950968 -3.5 L 192.12294993950968 -0.5 L 125.95314138210836 -0.5 Z"/><text text-anchor="middle" pointer-events="none" font-size="8px" fill="#000000" x="108.56147496975484" y="3" transform="rotate(180 108.56147496975484 0)" font-family="sans-serif">ORIGIN</text></g><g class="relationship" transform="translate(-203.71345749790748 -33.90065579306754) rotate(310.6070416622867)"><path class="outline" fill="#A5ABB6" stroke="none" d="M 25 0.5 L 86.21325874586034 0.5 L 86.21325874586034 -0.5 L 25 -0.5 Z M 146.12992668409277 0.5 L 207.3431854299531 0.5 L 207.3431854299531 3.5 L 214.3431854299531 0 L 207.3431854299531 -3.5 L 207.3431854299531 -0.5 L 146.12992668409277 -0.5 Z"/><text text-anchor="middle" pointer-events="none" font-size="8px" fill="#000000" x="116.17159271497655" y="3" font-family="sans-serif">DESTINATION</text></g><g class="relationship" transform="translate(133.24548479454597 -189.27828156537706) rotate(188.26859817935429)"><path class="outline" fill="#A5ABB6" stroke="none" d="M 25 0.5 L 70.64903901072852 0.5 L 70.64903901072852 -0.5 L 25 -0.5 Z M 105.43237183543555 0.5 L 151.08141084616406 0.5 L 151.08141084616406 3.5 L 158.08141084616406 0 L 151.08141084616406 -3.5 L 151.08141084616406 -0.5 L 105.43237183543555 -0.5 Z"/><text text-anchor="middle" pointer-events="none" font-size="8px" fill="#000000" x="88.04070542308203" y="3" transform="rotate(180 88.04070542308203 0)" font-family="sans-serif">ORIGIN</text></g><g class="relationship" transform="translate(133.24548479454597 -189.27828156537706) rotate(441.6345230436232)"><path class="outline" fill="#A5ABB6" stroke="none" d="M 25 0.5 L 39.067890630773874 0.5 L 39.067890630773874 -0.5 L 25 -0.5 Z M 98.9845585690063 0.5 L 113.05244919978017 0.5 L 113.05244919978017 3.5 L 120.05244919978017 0 L 113.05244919978017 -3.5 L 113.05244919978017 -0.5 L 98.9845585690063 -0.5 Z"/><text text-anchor="middle" pointer-events="none" font-size="8px" fill="#000000" x="69.02622459989009" y="3" font-family="sans-serif">DESTINATION</text></g><g class="relationship" transform="translate(81.51790408608034 -219.4423822705235) rotate(538.3033380627263)"><path class="outline" fill="#A5ABB6" stroke="none" d="M 25 0.5 L 31.295382112426267 0.5 L 31.295382112426267 -0.5 L 25 -0.5 Z M 91.21205005065869 0.5 L 97.50743216308496 0.5 L 97.50743216308496 3.5 L 104.50743216308496 0 L 97.50743216308496 -3.5 L 97.50743216308496 -0.5 L 91.21205005065869 -0.5 Z"/><text text-anchor="middle" pointer-events="none" font-size="8px" fill="#000000" x="61.25371608154248" y="3" transform="rotate(180 61.25371608154248 0)" font-family="sans-serif">DESTINATION</text></g><g class="relationship" transform="translate(81.51790408608034 -219.4423822705235) rotate(427.24899235486726)"><path class="outline" fill="#A5ABB6" stroke="none" d="M 25 0.5 L 73.27137575553843 0.5 L 73.27137575553843 -0.5 L 25 -0.5 Z M 108.05470858024546 0.5 L 156.3260843357839 0.5 L 156.3260843357839 3.5 L 163.3260843357839 0 L 156.3260843357839 -3.5 L 156.3260843357839 -0.5 L 108.05470858024546 -0.5 Z"/><text text-anchor="middle" pointer-events="none" font-size="8px" fill="#000000" x="90.66304216789194" y="3" font-family="sans-serif">ORIGIN</text></g><g class="relationship" transform="translate(81.19221641499257 -159.5251541694422) rotate(203.47672396154564)"><path class="outline" fill="#A5ABB6" stroke="none" d="M 25 0.5 L 36.930823956442865 0.5 L 36.930823956442865 -0.5 L 25 -0.5 Z M 96.84749189467529 0.5 L 108.77831585111815 0.5 L 108.77831585111815 3.5 L 115.77831585111815 0 L 108.77831585111815 -3.5 L 108.77831585111815 -0.5 L 96.84749189467529 -0.5 Z"/><text text-anchor="middle" pointer-events="none" font-size="8px" fill="#000000" x="66.88915792555908" y="3" transform="rotate(180 66.88915792555908 0)" font-family="sans-serif">DESTINATION</text></g><g class="relationship" transform="translate(81.19221641499257 -159.5251541694422) rotate(417.25491954637016)"><path class="outline" fill="#A5ABB6" stroke="none" d="M 25 0.5 L 46.732846528514756 0.5 L 46.732846528514756 -0.5 L 25 -0.5 Z M 81.51617935322179 0.5 L 103.24902588173654 0.5 L 103.24902588173654 3.5 L 110.24902588173654 0 L 103.24902588173654 -3.5 L 103.24902588173654 -0.5 L 81.51617935322179 -0.5 Z"/><text text-anchor="middle" pointer-events="none" font-size="8px" fill="#000000" x="64.12451294086827" y="3" font-family="sans-serif">ORIGIN</text></g><g class="relationship" transform="translate(-215.29623050562944 86.017737988271) rotate(488.66809846565127)"><path class="outline" fill="#A5ABB6" stroke="none" d="M 25 0.5 L 35.78544693868524 0.5 L 35.78544693868524 -0.5 L 25 -0.5 Z M 70.56877976339227 0.5 L 81.35422670207751 0.5 L 81.35422670207751 3.5 L 88.35422670207751 0 L 81.35422670207751 -3.5 L 81.35422670207751 -0.5 L 70.56877976339227 -0.5 Z"/><text text-anchor="middle" pointer-events="none" font-size="8px" fill="#000000" x="53.177113351038756" y="3" transform="rotate(180 53.177113351038756 0)" font-family="sans-serif">ORIGIN</text></g><g class="relationship" transform="translate(-215.29623050562944 86.017737988271) rotate(370.3071144375094)"><path class="outline" fill="#A5ABB6" stroke="none" d="M 25 0.5 L 41.656186587033545 0.5 L 41.656186587033545 -0.5 L 25 -0.5 Z M 101.57285452526597 0.5 L 118.22904111229951 0.5 L 118.22904111229951 3.5 L 125.22904111229951 0 L 118.22904111229951 -3.5 L 118.22904111229951 -0.5 L 101.57285452526597 -0.5 Z"/><text text-anchor="middle" pointer-events="none" font-size="8px" fill="#000000" x="71.61452055614976" y="3" font-family="sans-serif">DESTINATION</text></g><g class="relationship" transform="translate(58.06279315269068 35.85527337487802) rotate(508.4660544418027)"><path class="outline" fill="#A5ABB6" stroke="none" d="M 25 0.5 L 40.19517314459357 0.5 L 40.19517314459357 -0.5 L 25 -0.5 Z M 100.11184108282599 0.5 L 115.30701422741956 0.5 L 115.30701422741956 3.5 L 122.30701422741956 0 L 115.30701422741956 -3.5 L 115.30701422741956 -0.5 L 100.11184108282599 -0.5 Z"/><text text-anchor="middle" pointer-events="none" font-size="8px" fill="#000000" x="70.15350711370978" y="3" transform="rotate(180 70.15350711370978 0)" font-family="sans-serif">DESTINATION</text></g><g class="relationship" transform="translate(58.06279315269068 35.85527337487802) rotate(319.7110657779356)"><path class="outline" fill="#A5ABB6" stroke="none" d="M 25 0.5 L 42.2223744118295 0.5 L 42.2223744118295 -0.5 L 25 -0.5 Z M 77.00570723653652 0.5 L 94.22808164836603 0.5 L 94.22808164836603 3.5 L 101.22808164836603 0 L 94.22808164836603 -3.5 L 94.22808164836603 -0.5 L 77.00570723653652 -0.5 Z"/><text text-anchor="middle" pointer-events="none" font-size="8px" fill="#000000" x="59.614040824183014" y="3" font-family="sans-serif">ORIGIN</text></g><g class="relationship" transform="translate(-189.9731285567678 142.08520358230174) rotate(521.3573049905647)"><path class="outline" fill="#A5ABB6" stroke="none" d="M 25 0.5 L 29.84429184042311 0.5 L 29.84429184042311 -0.5 L 25 -0.5 Z M 64.62762466513014 0.5 L 69.47191650555325 0.5 L 69.47191650555325 3.5 L 76.47191650555325 0 L 69.47191650555325 -3.5 L 69.47191650555325 -0.5 L 64.62762466513014 -0.5 Z"/><text text-anchor="middle" pointer-events="none" font-size="8px" fill="#000000" x="47.235958252776626" y="3" transform="rotate(180 47.235958252776626 0)" font-family="sans-serif">ORIGIN</text></g><g class="relationship" transform="translate(-189.9731285567678 142.08520358230174) rotate(346.59620284705034)"><path class="outline" fill="#A5ABB6" stroke="none" d="M 25 0.5 L 29.497380797296906 0.5 L 29.497380797296906 -0.5 L 25 -0.5 Z M 89.41404873552932 0.5 L 93.91142953282623 0.5 L 93.91142953282623 3.5 L 100.91142953282623 0 L 93.91142953282623 -3.5 L 93.91142953282623 -0.5 L 89.41404873552932 -0.5 Z"/><text text-anchor="middle" pointer-events="none" font-size="8px" fill="#000000" x="59.45571476641312" y="3" font-family="sans-serif">DESTINATION</text></g><g class="relationship" transform="translate(18.105376422541813 -8.844913904810518) rotate(485.11100013928547)"><path class="outline" fill="#A5ABB6" stroke="none" d="M 25 0.5 L 53.51936080025273 0.5 L 53.51936080025273 -0.5 L 25 -0.5 Z M 88.30269362495976 0.5 L 116.82205442521249 0.5 L 116.82205442521249 3.5 L 123.82205442521249 0 L 116.82205442521249 -3.5 L 116.82205442521249 -0.5 L 88.30269362495976 -0.5 Z"/><text text-anchor="middle" pointer-events="none" font-size="8px" fill="#000000" x="70.91102721260624" y="3" transform="rotate(180 70.91102721260624 0)" font-family="sans-serif">ORIGIN</text></g><g class="relationship" transform="translate(18.105376422541813 -8.844913904810518) rotate(344.8361324981337)"><path class="outline" fill="#A5ABB6" stroke="none" d="M 25 0.5 L 37.12078633774502 0.5 L 37.12078633774502 -0.5 L 25 -0.5 Z M 97.03745427597744 0.5 L 109.15824061372246 0.5 L 109.15824061372246 3.5 L 116.15824061372246 0 L 109.15824061372246 -3.5 L 109.15824061372246 -0.5 L 97.03745427597744 -0.5 Z"/><text text-anchor="middle" pointer-events="none" font-size="8px" fill="#000000" x="67.07912030686123" y="3" font-family="sans-serif">DESTINATION</text></g><g class="relationship" transform="translate(-287.82787515844007 5.690523674738202) rotate(449.42071697003234)"><path class="outline" fill="#A5ABB6" stroke="none" d="M 25 0.5 L 63.52852205592701 0.5 L 63.52852205592701 -0.5 L 25 -0.5 Z M 98.31185488063404 0.5 L 136.84037693656106 0.5 L 136.84037693656106 3.5 L 143.84037693656106 0 L 136.84037693656106 -3.5 L 136.84037693656106 -0.5 L 98.31185488063404 -0.5 Z"/><text text-anchor="middle" pointer-events="none" font-size="8px" fill="#000000" x="80.92018846828053" y="3" font-family="sans-serif">ORIGIN</text></g><g class="relationship" transform="translate(-287.82787515844007 5.690523674738202) rotate(314.54406865072013)"><path class="outline" fill="#A5ABB6" stroke="none" d="M 25 0.5 L 62.135035403243066 0.5 L 62.135035403243066 -0.5 L 25 -0.5 Z M 122.05170334147549 0.5 L 159.18673874471855 0.5 L 159.18673874471855 3.5 L 166.18673874471855 0 L 159.18673874471855 -3.5 L 159.18673874471855 -0.5 L 122.05170334147549 -0.5 Z"/><text text-anchor="middle" pointer-events="none" font-size="8px" fill="#000000" x="92.09336937235928" y="3" font-family="sans-serif">DESTINATION</text></g><g class="relationship" transform="translate(12.667627552961907 -148.39605970137833) rotate(533.8849789553063)"><path class="outline" fill="#A5ABB6" stroke="none" d="M 25 0.5 L 50.21079033450721 0.5 L 50.21079033450721 -0.5 L 25 -0.5 Z M 110.12745827273963 0.5 L 135.33824860724684 0.5 L 135.33824860724684 3.5 L 142.33824860724684 0 L 135.33824860724684 -3.5 L 135.33824860724684 -0.5 L 110.12745827273963 -0.5 Z"/><text text-anchor="middle" pointer-events="none" font-size="8px" fill="#000000" x="80.16912430362342" y="3" transform="rotate(180 80.16912430362342 0)" font-family="sans-serif">DESTINATION</text></g><g class="relationship" transform="translate(12.667627552961907 -148.39605970137833) rotate(395.9177450448084)"><path class="outline" fill="#A5ABB6" stroke="none" d="M 25 0.5 L 66.58091691600399 0.5 L 66.58091691600399 -0.5 L 25 -0.5 Z M 101.36424974071102 0.5 L 142.945166656715 0.5 L 142.945166656715 3.5 L 149.945166656715 0 L 142.945166656715 -3.5 L 142.945166656715 -0.5 L 101.36424974071102 -0.5 Z"/><text text-anchor="middle" pointer-events="none" font-size="8px" fill="#000000" x="83.9725833283575" y="3" font-family="sans-serif">ORIGIN</text></g><g class="relationship" transform="translate(-1.6112707975647587 -90.21238759041567) rotate(194.85968230867877)"><path class="outline" fill="#A5ABB6" stroke="none" d="M 25 0.5 L 45.226750846826846 0.5 L 45.226750846826846 -0.5 L 25 -0.5 Z M 105.14341878505927 0.5 L 125.37016963188611 0.5 L 125.37016963188611 3.5 L 132.3701696318861 0 L 125.37016963188611 -3.5 L 125.37016963188611 -0.5 L 105.14341878505927 -0.5 Z"/><text text-anchor="middle" pointer-events="none" font-size="8px" fill="#000000" x="75.18508481594306" y="3" transform="rotate(180 75.18508481594306 0)" font-family="sans-serif">DESTINATION</text></g><g class="relationship" transform="translate(-1.6112707975647587 -90.21238759041567) rotate(375.90572567936727)"><path class="outline" fill="#A5ABB6" stroke="none" d="M 25 0.5 L 60.192731951171965 0.5 L 60.192731951171965 -0.5 L 25 -0.5 Z M 94.976064775879 0.5 L 130.16879672705096 0.5 L 130.16879672705096 3.5 L 137.16879672705096 0 L 130.16879672705096 -3.5 L 130.16879672705096 -0.5 L 94.976064775879 -0.5 Z"/><text text-anchor="middle" pointer-events="none" font-size="8px" fill="#000000" x="77.58439836352548" y="3" font-family="sans-serif">ORIGIN</text></g><g class="relationship" transform="translate(63.388346877543 270.77396385960265) rotate(230.34124323540857)"><path class="outline" fill="#A5ABB6" stroke="none" d="M 25 0.5 L 69.07768531554218 0.5 L 69.07768531554218 -0.5 L 25 -0.5 Z M 128.9943532537746 0.5 L 173.0720385693168 0.5 L 173.0720385693168 3.5 L 180.0720385693168 0 L 173.0720385693168 -3.5 L 173.0720385693168 -0.5 L 128.9943532537746 -0.5 Z"/><text text-anchor="middle" pointer-events="none" font-size="8px" fill="#000000" x="99.0360192846584" y="3" transform="rotate(180 99.0360192846584 0)" font-family="sans-serif">DESTINATION</text></g><g class="relationship" transform="translate(63.388346877543 270.77396385960265) rotate(387.5007409010217)"><path class="outline" fill="#A5ABB6" stroke="none" d="M 25 0.5 L 70.76229455204721 0.5 L 70.76229455204721 -0.5 L 25 -0.5 Z M 105.54562737675424 0.5 L 151.30792192880145 0.5 L 151.30792192880145 3.5 L 158.30792192880145 0 L 151.30792192880145 -3.5 L 151.30792192880145 -0.5 L 105.54562737675424 -0.5 Z"/><text text-anchor="middle" pointer-events="none" font-size="8px" fill="#000000" x="88.15396096440072" y="3" font-family="sans-serif">ORIGIN</text></g></g><g class="layer nodes"><g class="node" transform="translate(-286.12086113967405,174.52227124378922)"><circle class="outline" cx="0" cy="0" r="25" fill="#8DCC93" stroke="#5db665" stroke-width="2px"/><text text-anchor="middle" pointer-events="none" font-family="sans-serif" dy="1.5625" font-size="25" fill="#2A2C34"/><text text-anchor="middle" pointer-events="none" x="0" y="5" font-size="10px" fill="#2A2C34" font-family="sans-serif"> LAX</text></g><g class="node" transform="translate(644.8265955487839,131.06591324637145)"><circle class="outline" cx="0" cy="0" r="25" fill="#8DCC93" stroke="#5db665" stroke-width="2px"/><text text-anchor="middle" pointer-events="none" font-family="sans-serif" dy="1.5625" font-size="25" fill="#2A2C34"/><text text-anchor="middle" pointer-events="none" x="0" y="5" font-size="10px" fill="#2A2C34" font-family="sans-serif"> DAY</text></g><g class="node" transform="translate(-89.85360631790758,237.45918314648986)"><circle class="outline" cx="0" cy="0" r="25" fill="#D9C8AE" stroke="#c0a378" stroke-width="2px"/><text text-anchor="middle" pointer-events="none" font-family="sans-serif" dy="1.5625" font-size="25" fill="#2A2C34"/><text text-anchor="middle" pointer-events="none" x="0" y="5" font-size="10px" fill="#2A2C34" font-family="sans-serif"> 11/29/2…</text></g><g class="node" transform="translate(133.69952683053785,265.32838027211557)"><circle class="outline" cx="0" cy="0" r="25" fill="#8DCC93" stroke="#5db665" stroke-width="2px"/><text text-anchor="middle" pointer-events="none" font-family="sans-serif" dy="1.5625" font-size="25" fill="#2A2C34"/><text text-anchor="middle" pointer-events="none" x="0" y="5" font-size="10px" fill="#2A2C34" font-family="sans-serif"> LAS</text></g><g class="node" transform="translate(172.97272237067003,426.70079145810377)"><circle class="outline" cx="0" cy="0" r="25" fill="#D9C8AE" stroke="#c0a378" stroke-width="2px"/><text text-anchor="middle" pointer-events="none" font-family="sans-serif" dy="1.5625" font-size="25" fill="#2A2C34"/><text text-anchor="middle" pointer-events="none" x="0" y="5" font-size="10px" fill="#2A2C34" font-family="sans-serif"> 11/29/2…</text></g><g class="node" transform="translate(225.983364900436,355.41824515486013)"><circle class="outline" cx="0" cy="0" r="25" fill="#8DCC93" stroke="#5db665" stroke-width="2px"/><text text-anchor="middle" pointer-events="none" font-family="sans-serif" dy="1.5625" font-size="25" fill="#2A2C34"/><text text-anchor="middle" pointer-events="none" x="0" y="5" font-size="10px" fill="#2A2C34" font-family="sans-serif"> DEN</text></g><g class="node" transform="translate(363.2135380175388,231.02990292816443)"><circle class="outline" cx="0" cy="0" r="25" fill="#D9C8AE" stroke="#c0a378" stroke-width="2px"/><text text-anchor="middle" pointer-events="none" font-family="sans-serif" dy="1.5625" font-size="25" fill="#2A2C34"/><text text-anchor="middle" pointer-events="none" x="0" y="5" font-size="10px" fill="#2A2C34" font-family="sans-serif"> 11/29/2…</text></g><g class="node" transform="translate(438.982813896999,62.862665580978195)"><circle class="outline" cx="0" cy="0" r="25" fill="#8DCC93" stroke="#5db665" stroke-width="2px"/><text text-anchor="middle" pointer-events="none" font-family="sans-serif" dy="1.5625" font-size="25" fill="#2A2C34"/><text text-anchor="middle" pointer-events="none" x="0" y="5" font-size="10px" fill="#2A2C34" font-family="sans-serif"> MSP</text></g><g class="node" transform="translate(552.2762761234578,74.04836026564553)"><circle class="outline" cx="0" cy="0" r="25" fill="#D9C8AE" stroke="#c0a378" stroke-width="2px"/><text text-anchor="middle" pointer-events="none" font-family="sans-serif" dy="1.5625" font-size="25" fill="#2A2C34"/><text text-anchor="middle" pointer-events="none" x="0" y="5" font-size="10px" fill="#2A2C34" font-family="sans-serif"> 11/23/2…</text></g><g class="node" transform="translate(527.364514953123,191.28000822996773)"><circle class="outline" cx="0" cy="0" r="25" fill="#D9C8AE" stroke="#c0a378" stroke-width="2px"/><text text-anchor="middle" pointer-events="none" font-family="sans-serif" dy="1.5625" font-size="25" fill="#2A2C34"/><text text-anchor="middle" pointer-events="none" x="0" y="5" font-size="10px" fill="#2A2C34" font-family="sans-serif"> 11/16/2…</text></g><g class="node" transform="translate(537.7030035948145,132.27238938185235)"><circle class="outline" cx="0" cy="0" r="25" fill="#D9C8AE" stroke="#c0a378" stroke-width="2px"/><text text-anchor="middle" pointer-events="none" font-family="sans-serif" dy="1.5625" font-size="25" fill="#2A2C34"/><text text-anchor="middle" pointer-events="none" x="0" y="5" font-size="10px" fill="#2A2C34" font-family="sans-serif"> 11/11/2…</text></g><g class="node" transform="translate(598.7699205208373,36.16887051809623)"><circle class="outline" cx="0" cy="0" r="25" fill="#D9C8AE" stroke="#c0a378" stroke-width="2px"/><text text-anchor="middle" pointer-events="none" font-family="sans-serif" dy="1.5625" font-size="25" fill="#2A2C34"/><text text-anchor="middle" pointer-events="none" x="0" y="5" font-size="10px" fill="#2A2C34" font-family="sans-serif"> 11/25/2…</text></g><g class="node" transform="translate(547.6143217392041,5.074099075894621)"><circle class="outline" cx="0" cy="0" r="25" fill="#D9C8AE" stroke="#c0a378" stroke-width="2px"/><text text-anchor="middle" pointer-events="none" font-family="sans-serif" dy="1.5625" font-size="25" fill="#2A2C34"/><text text-anchor="middle" pointer-events="none" x="0" y="5" font-size="10px" fill="#2A2C34" font-family="sans-serif"> 11/20/2…</text></g><g class="node" transform="translate(-247.1999103947492,341.87068898704894)"><circle class="outline" cx="0" cy="0" r="25" fill="#D9C8AE" stroke="#c0a378" stroke-width="2px"/><text text-anchor="middle" pointer-events="none" font-family="sans-serif" dy="1.5625" font-size="25" fill="#2A2C34"/><text text-anchor="middle" pointer-events="none" x="0" y="5" font-size="10px" fill="#2A2C34" font-family="sans-serif"> 11/2/20…</text></g><g class="node" transform="translate(-73.73072024537593,323.426629523709)"><circle class="outline" cx="0" cy="0" r="25" fill="#8DCC93" stroke="#5db665" stroke-width="2px"/><text text-anchor="middle" pointer-events="none" font-family="sans-serif" dy="1.5625" font-size="25" fill="#2A2C34"/><text text-anchor="middle" pointer-events="none" x="0" y="5" font-size="10px" fill="#2A2C34" font-family="sans-serif"> SMF</text></g><g class="node" transform="translate(66.54712090168172,407.92562782751503)"><circle class="outline" cx="0" cy="0" r="25" fill="#D9C8AE" stroke="#c0a378" stroke-width="2px"/><text text-anchor="middle" pointer-events="none" font-family="sans-serif" dy="1.5625" font-size="25" fill="#2A2C34"/><text text-anchor="middle" pointer-events="none" x="0" y="5" font-size="10px" fill="#2A2C34" font-family="sans-serif"> 11/30/2…</text></g><g class="node" transform="translate(-243.66058534712496,282.0743168252389)"><circle class="outline" cx="0" cy="0" r="25" fill="#D9C8AE" stroke="#c0a378" stroke-width="2px"/><text text-anchor="middle" pointer-events="none" font-family="sans-serif" dy="1.5625" font-size="25" fill="#2A2C34"/><text text-anchor="middle" pointer-events="none" x="0" y="5" font-size="10px" fill="#2A2C34" font-family="sans-serif"> 11/3/20…</text></g><g class="node" transform="translate(-193.67205786574928,315.0562601663117)"><circle class="outline" cx="0" cy="0" r="25" fill="#D9C8AE" stroke="#c0a378" stroke-width="2px"/><text text-anchor="middle" pointer-events="none" font-family="sans-serif" dy="1.5625" font-size="25" fill="#2A2C34"/><text text-anchor="middle" pointer-events="none" x="0" y="5" font-size="10px" fill="#2A2C34" font-family="sans-serif"> 11/1/20…</text></g><g class="node" transform="translate(-190.02276885968064,255.18658250767592)"><circle class="outline" cx="0" cy="0" r="25" fill="#D9C8AE" stroke="#c0a378" stroke-width="2px"/><text text-anchor="middle" pointer-events="none" font-family="sans-serif" dy="1.5625" font-size="25" fill="#2A2C34"/><text text-anchor="middle" pointer-events="none" x="0" y="5" font-size="10px" fill="#2A2C34" font-family="sans-serif"> 11/4/20…</text></g><g class="node" transform="translate(209.94481621241232,111.86936789416517)"><circle class="outline" cx="0" cy="0" r="25" fill="#D9C8AE" stroke="#c0a378" stroke-width="2px"/><text text-anchor="middle" pointer-events="none" font-family="sans-serif" dy="1.5625" font-size="25" fill="#2A2C34"/><text text-anchor="middle" pointer-events="none" x="0" y="5" font-size="10px" fill="#2A2C34" font-family="sans-serif"> 11/29/2…</text></g><g class="node" transform="translate(154.34871961528575,-45.76916513385721)"><circle class="outline" cx="0" cy="0" r="25" fill="#8DCC93" stroke="#5db665" stroke-width="2px"/><text text-anchor="middle" pointer-events="none" font-family="sans-serif" dy="1.5625" font-size="25" fill="#2A2C34"/><text text-anchor="middle" pointer-events="none" x="0" y="5" font-size="10px" fill="#2A2C34" font-family="sans-serif"> ORD</text></g><g class="node" transform="translate(307.47576823016624,-20.77371324994853)"><circle class="outline" cx="0" cy="0" r="25" fill="#D9C8AE" stroke="#c0a378" stroke-width="2px"/><text text-anchor="middle" pointer-events="none" font-family="sans-serif" dy="1.5625" font-size="25" fill="#2A2C34"/><text text-anchor="middle" pointer-events="none" x="0" y="5" font-size="10px" fill="#2A2C34" font-family="sans-serif"> 11/29/2…</text></g><g class="node" transform="translate(333.0927972359709,-74.85788285316283)"><circle class="outline" cx="0" cy="0" r="25" fill="#D9C8AE" stroke="#c0a378" stroke-width="2px"/><text text-anchor="middle" pointer-events="none" font-family="sans-serif" dy="1.5625" font-size="25" fill="#2A2C34"/><text text-anchor="middle" pointer-events="none" x="0" y="5" font-size="10px" fill="#2A2C34" font-family="sans-serif"> 11/29/2…</text></g><g class="node" transform="translate(150.73246029441285,102.83347277176837)"><circle class="outline" cx="0" cy="0" r="25" fill="#D9C8AE" stroke="#c0a378" stroke-width="2px"/><text text-anchor="middle" pointer-events="none" font-family="sans-serif" dy="1.5625" font-size="25" fill="#2A2C34"/><text text-anchor="middle" pointer-events="none" x="0" y="5" font-size="10px" fill="#2A2C34" font-family="sans-serif"> 11/29/2…</text></g><g class="node" transform="translate(297.8149208481105,38.37026219378551)"><circle class="outline" cx="0" cy="0" r="25" fill="#D9C8AE" stroke="#c0a378" stroke-width="2px"/><text text-anchor="middle" pointer-events="none" font-family="sans-serif" dy="1.5625" font-size="25" fill="#2A2C34"/><text text-anchor="middle" pointer-events="none" x="0" y="5" font-size="10px" fill="#2A2C34" font-family="sans-serif"> 11/30/2…</text></g><g class="node" transform="translate(72.9281714540676,158.96457527759839)"><circle class="outline" cx="0" cy="0" r="25" fill="#D9C8AE" stroke="#c0a378" stroke-width="2px"/><text text-anchor="middle" pointer-events="none" font-family="sans-serif" dy="1.5625" font-size="25" fill="#2A2C34"/><text text-anchor="middle" pointer-events="none" x="0" y="5" font-size="10px" fill="#2A2C34" font-family="sans-serif"> 11/30/2…</text></g><g class="node" transform="translate(23.0142265646979,125.91218496097375)"><circle class="outline" cx="0" cy="0" r="25" fill="#D9C8AE" stroke="#c0a378" stroke-width="2px"/><text text-anchor="middle" pointer-events="none" font-family="sans-serif" dy="1.5625" font-size="25" fill="#2A2C34"/><text text-anchor="middle" pointer-events="none" x="0" y="5" font-size="10px" fill="#2A2C34" font-family="sans-serif"> 11/29/2…</text></g><g class="node" transform="translate(-203.71345749790748,-33.90065579306754)"><circle class="outline" cx="0" cy="0" r="25" fill="#D9C8AE" stroke="#c0a378" stroke-width="2px"/><text text-anchor="middle" pointer-events="none" font-family="sans-serif" dy="1.5625" font-size="25" fill="#2A2C34"/><text text-anchor="middle" pointer-events="none" x="0" y="5" font-size="10px" fill="#2A2C34" font-family="sans-serif"> 11/30/2…</text></g><g class="node" transform="translate(-47.93275030715861,-215.6079249897265)"><circle class="outline" cx="0" cy="0" r="25" fill="#8DCC93" stroke="#5db665" stroke-width="2px"/><text text-anchor="middle" pointer-events="none" font-family="sans-serif" dy="1.5625" font-size="25" fill="#2A2C34"/><text text-anchor="middle" pointer-events="none" x="0" y="5" font-size="10px" fill="#2A2C34" font-family="sans-serif"> IAH</text></g><g class="node" transform="translate(133.24548479454597,-189.27828156537706)"><circle class="outline" cx="0" cy="0" r="25" fill="#D9C8AE" stroke="#c0a378" stroke-width="2px"/><text text-anchor="middle" pointer-events="none" font-family="sans-serif" dy="1.5625" font-size="25" fill="#2A2C34"/><text text-anchor="middle" pointer-events="none" x="0" y="5" font-size="10px" fill="#2A2C34" font-family="sans-serif"> 11/29/2…</text></g><g class="node" transform="translate(81.51790408608034,-219.4423822705235)"><circle class="outline" cx="0" cy="0" r="25" fill="#D9C8AE" stroke="#c0a378" stroke-width="2px"/><text text-anchor="middle" pointer-events="none" font-family="sans-serif" dy="1.5625" font-size="25" fill="#2A2C34"/><text text-anchor="middle" pointer-events="none" x="0" y="5" font-size="10px" fill="#2A2C34" font-family="sans-serif"> 11/30/2…</text></g><g class="node" transform="translate(81.19221641499257,-159.5251541694422)"><circle class="outline" cx="0" cy="0" r="25" fill="#D9C8AE" stroke="#c0a378" stroke-width="2px"/><text text-anchor="middle" pointer-events="none" font-family="sans-serif" dy="1.5625" font-size="25" fill="#2A2C34"/><text text-anchor="middle" pointer-events="none" x="0" y="5" font-size="10px" fill="#2A2C34" font-family="sans-serif"> 11/29/2…</text></g><g class="node" transform="translate(-215.29623050562944,86.017737988271)"><circle class="outline" cx="0" cy="0" r="25" fill="#D9C8AE" stroke="#c0a378" stroke-width="2px"/><text text-anchor="middle" pointer-events="none" font-family="sans-serif" dy="1.5625" font-size="25" fill="#2A2C34"/><text text-anchor="middle" pointer-events="none" x="0" y="5" font-size="10px" fill="#2A2C34" font-family="sans-serif"> 11/30/2…</text></g><g class="node" transform="translate(-67.49146120704091,112.89737649238776)"><circle class="outline" cx="0" cy="0" r="25" fill="#8DCC93" stroke="#5db665" stroke-width="2px"/><text text-anchor="middle" pointer-events="none" font-family="sans-serif" dy="1.5625" font-size="25" fill="#2A2C34"/><text text-anchor="middle" pointer-events="none" x="0" y="5" font-size="10px" fill="#2A2C34" font-family="sans-serif"> EWR</text></g><g class="node" transform="translate(58.06279315269068,35.85527337487802)"><circle class="outline" cx="0" cy="0" r="25" fill="#D9C8AE" stroke="#c0a378" stroke-width="2px"/><text text-anchor="middle" pointer-events="none" font-family="sans-serif" dy="1.5625" font-size="25" fill="#2A2C34"/><text text-anchor="middle" pointer-events="none" x="0" y="5" font-size="10px" fill="#2A2C34" font-family="sans-serif"> 11/30/2…</text></g><g class="node" transform="translate(-189.9731285567678,142.08520358230174)"><circle class="outline" cx="0" cy="0" r="25" fill="#D9C8AE" stroke="#c0a378" stroke-width="2px"/><text text-anchor="middle" pointer-events="none" font-family="sans-serif" dy="1.5625" font-size="25" fill="#2A2C34"/><text text-anchor="middle" pointer-events="none" x="0" y="5" font-size="10px" fill="#2A2C34" font-family="sans-serif"> 11/29/2…</text></g><g class="node" transform="translate(18.105376422541813,-8.844913904810518)"><circle class="outline" cx="0" cy="0" r="25" fill="#D9C8AE" stroke="#c0a378" stroke-width="2px"/><text text-anchor="middle" pointer-events="none" font-family="sans-serif" dy="1.5625" font-size="25" fill="#2A2C34"/><text text-anchor="middle" pointer-events="none" x="0" y="5" font-size="10px" fill="#2A2C34" font-family="sans-serif"> 11/30/2…</text></g><g class="node" transform="translate(-287.82787515844007,5.690523674738202)"><circle class="outline" cx="0" cy="0" r="25" fill="#D9C8AE" stroke="#c0a378" stroke-width="2px"/><text text-anchor="middle" pointer-events="none" font-family="sans-serif" dy="1.5625" font-size="25" fill="#2A2C34"/><text text-anchor="middle" pointer-events="none" x="0" y="5" font-size="10px" fill="#2A2C34" font-family="sans-serif"> 11/29/2…</text></g><g class="node" transform="translate(-153.71847496448424,-130.57039460874714)"><circle class="outline" cx="0" cy="0" r="25" fill="#8DCC93" stroke="#5db665" stroke-width="2px"/><text text-anchor="middle" pointer-events="none" font-family="sans-serif" dy="1.5625" font-size="25" fill="#2A2C34"/><text text-anchor="middle" pointer-events="none" x="0" y="5" font-size="10px" fill="#2A2C34" font-family="sans-serif"> BOS</text></g><g class="node" transform="translate(12.667627552961907,-148.39605970137833)"><circle class="outline" cx="0" cy="0" r="25" fill="#D9C8AE" stroke="#c0a378" stroke-width="2px"/><text text-anchor="middle" pointer-events="none" font-family="sans-serif" dy="1.5625" font-size="25" fill="#2A2C34"/><text text-anchor="middle" pointer-events="none" x="0" y="5" font-size="10px" fill="#2A2C34" font-family="sans-serif"> 11/30/2…</text></g><g class="node" transform="translate(-1.6112707975647587,-90.21238759041567)"><circle class="outline" cx="0" cy="0" r="25" fill="#D9C8AE" stroke="#c0a378" stroke-width="2px"/><text text-anchor="middle" pointer-events="none" font-family="sans-serif" dy="1.5625" font-size="25" fill="#2A2C34"/><text text-anchor="middle" pointer-events="none" x="0" y="5" font-size="10px" fill="#2A2C34" font-family="sans-serif"> 11/29/2…</text></g><g class="node" transform="translate(63.388346877543,270.77396385960265)"><circle class="outline" cx="0" cy="0" r="25" fill="#D9C8AE" stroke="#c0a378" stroke-width="2px"/><text text-anchor="middle" pointer-events="none" font-family="sans-serif" dy="1.5625" font-size="25" fill="#2A2C34"/><text text-anchor="middle" pointer-events="none" x="0" y="5" font-size="10px" fill="#2A2C34" font-family="sans-serif"> 11/30/2…</text></g></g></svg>