<svg xmlns="http://www.w3.org/2000/svg" width="413.90179443359375" height="324.24786376953125" viewBox="-111.95832824707031 -56.56646728515625 413.90179443359375 324.24786376953125"><title>Neo4j Graph Visualization</title><desc>Created using Neo4j (http://www.neo4j.com/)</desc><g class="layer relationships"><g class="relationship" transform="translate(272.94344276178856 30.1828598509649) rotate(514.4392610496619)"><path class="outline" fill="#A5ABB6" stroke="none" d="M 21.40063509461097,12.933012701892217 L 21.90063509461097,12.06698729810778 A 64.20692311739903 64.20692311739903 0 0 0 21.912941551752482,12.07409061890688 L 21.41313322044713,12.94022665438731 A 65.20692311739903 65.20692311739903 0 0 1 21.40063509461097,12.933012701892217 Z M 83.17992099475036,14.777802732994594 L 82.73248653615903,13.883486007630992 A 64.20692311739903 64.20692311739903 0 0 0 82.74519350535444,13.877126841992599 L 81.40229640999796,11.194473791133593 L 89.22853347325153,11.190809127970649 L 84.53572296582975,17.453997576471274 L 83.19282587047327,14.771344525612268 A 65.20692311739903 65.20692311739903 0 0 1 83.17992099475036,14.777802732994594"/><text text-anchor="middle" pointer-events="none" font-size="8px" fill="#000000" x="52.07990221600613" y="24.140467614961693" transform="rotate(180 52.07990221600613 21.140467614961693)" font-family="sans-serif">PublicTransp…</text></g><g class="relationship" transform="translate(172.28037000616266 78.3277389764297) rotate(479.25714655081015)"><path class="outline" fill="#A5ABB6" stroke="none" d="M 25 0.5 L 48.581508007855064 0.5 L 48.581508007855064 -0.5 L 25 -0.5 Z M 70.38150819858993 0.5 L 93.96301620644499 0.5 L 93.96301620644499 3.5 L 100.96301620644499 0 L 93.96301620644499 -3.5 L 93.96301620644499 -0.5 L 70.38150819858993 -0.5 Z"/><text text-anchor="middle" pointer-events="none" font-size="8px" fill="#000000" x="59.481508103222495" y="3" transform="rotate(180 59.481508103222495 0)" font-family="sans-serif">trek</text></g><g class="relationship" transform="translate(110.7184569259822 188.2222898410355) rotate(184.80037700840728)"><path class="outline" fill="#A5ABB6" stroke="none" d="M 25 0.5 L 45.99651435173841 0.5 L 45.99651435173841 -0.5 L 25 -0.5 Z M 67.79651454247328 0.5 L 88.79302889421169 0.5 L 88.79302889421169 3.5 L 95.79302889421169 0 L 88.79302889421169 -3.5 L 88.79302889421169 -0.5 L 67.79651454247328 -0.5 Z"/><text text-anchor="middle" pointer-events="none" font-size="8px" fill="#000000" x="56.896514447105844" y="3" transform="rotate(180 56.896514447105844 0)" font-family="sans-serif">trek</text></g><g class="relationship" transform="translate(272.94344276178856 30.1828598509649) rotate(514.4392610496619)"><path class="outline" fill="#A5ABB6" stroke="none" d="M 25 0.5 L 40.29198778187162 0.5 L 40.29198778187162 -0.5 L 25 -0.5 Z M 64.29198778187163 0.5 L 79.58397556374324 0.5 L 79.58397556374324 3.5 L 86.58397556374324 0 L 79.58397556374324 -3.5 L 79.58397556374324 -0.5 L 64.29198778187163 -0.5 Z"/><text text-anchor="middle" pointer-events="none" font-size="8px" fill="#000000" x="52.29198778187162" y="3" transform="rotate(180 52.29198778187162 0)" font-family="sans-serif">road</text></g><g class="relationship" transform="translate(272.94344276178856 30.1828598509649) rotate(514.4392610496619)"><path class="outline" fill="#A5ABB6" stroke="none" d="M 21.40063509461097,-12.933012701892217 L 21.90063509461097,-12.06698729810778 A 64.20692311739903 64.20692311739903 0 0 1 41.36186165758956,-19.41216372254908 L 41.164963342238025,-20.392587637706058 A 65.20692311739903 65.20692311739903 0 0 0 21.40063509461097,-12.933012701892217 Z M 63.019996922497725,-21.04277989071734 L 62.881730924990755,-20.05238476051254 A 64.20692311739903 64.20692311739903 0 0 1 82.74519350535444,-13.877126841992599 L 81.40229640999796,-11.194473791133593 L 89.22853347325153,-11.190809127970649 L 84.53572296582975,-17.453997576471274 L 83.19282587047327,-14.771344525612268 A 65.20692311739903 65.20692311739903 0 0 0 63.019996922497725,-21.04277989071734"/><text text-anchor="middle" pointer-events="none" font-size="8px" fill="#000000" x="52.07990221600611" y="-18.140467614961693" transform="rotate(180 52.07990221600611 -21.140467614961693)" font-family="sans-serif">trek</text></g><g class="relationship" transform="translate(172.28037000616266 78.3277389764297) rotate(227.99386186872823)"><path class="outline" fill="#A5ABB6" stroke="none" d="M 24.018736134675446,-6.953439040707552 L 24.277555179777966,-5.987513214418485 A 138.62312846783968 138.62312846783968 0 0 1 47.38587151617125,-10.121541646779065 L 47.293751322781304,-11.117289541564588 A 139.62312846783968 139.62312846783968 0 0 0 24.018736134675446,-6.953439040707552 Z M 69.14761097280518,-11.421145932751273 L 69.08321082540462,-10.423221776808163 A 138.62312846783968 138.62312846783968 0 0 1 92.29753118030854,-6.93326397730968 L 91.60194010651126,-4.0150191181428605 L 99.22270103066398,-5.796592281643866 L 93.22498594537156,-10.82425712286544 L 92.52939487157428,-7.90601226369862 A 139.62312846783968 139.62312846783968 0 0 0 69.14761097280518,-11.421145932751273"/><text text-anchor="middle" pointer-events="none" font-size="8px" fill="#000000" x="58.221677812174825" y="-8.197535968582542" transform="rotate(180 58.221677812174825 -11.197535968582542)" font-family="sans-serif">trek</text></g><g class="relationship" transform="translate(89.60519753743122 -13.472562738376478) rotate(492.6836433224481)"><path class="outline" fill="#A5ABB6" stroke="none" d="M 24.018736134675446,-6.953439040707552 L 24.277555179777966,-5.987513214418485 A 111.37970907288255 111.37970907288255 0 0 1 40.54976946216331,-9.07280979420544 L 40.43704717398208,-10.06643632653396 A 112.37970907288255 112.37970907288255 0 0 0 24.018736134675446,-6.953439040707552 Z M 62.29721019462123,-10.406089926564263 L 62.215411930996595,-9.409441019442013 A 111.37970907288255 111.37970907288255 0 0 1 78.57562419372286,-6.831172733236747 L 77.88956891633195,-3.9106713796393735 L 85.50446989834855,-5.7171273115908665 L 79.49036456357739,-10.725174538033245 L 78.80430928618648,-7.804673184435871 A 112.37970907288255 112.37970907288255 0 0 0 62.29721019462123,-10.406089926564263"/><text text-anchor="middle" pointer-events="none" font-size="8px" fill="#000000" x="51.36661719832372" y="-7.269182450411222" transform="rotate(180 51.36661719832372 -10.269182450411222)" font-family="sans-serif">trek</text></g><g class="relationship" transform="translate(15.137843930824117 67.27317446185229) rotate(462.60634910667545)"><path class="outline" fill="#A5ABB6" stroke="none" d="M 24.018736134675446,6.953439040707552 L 24.277555179777966,5.987513214418485 A 118.82939289712968 118.82939289712968 0 0 0 42.413525047337814,9.364557796982723 L 42.307327920309554,10.358902893119335 A 119.82939289712968 119.82939289712968 0 0 1 24.018736134675446,6.953439040707552 Z M 64.16576514563927,10.687983791511769 L 64.08954928786592,9.690892450147373 A 118.82939289712968 118.82939289712968 0 0 0 82.31896019465886,6.8613322120604 L 81.6300878285746,3.94149405503089 L 89.24672795540842,5.740603050702072 L 83.23745668277118,10.754449754766414 L 82.54858431668693,7.834611597736904 A 119.82939289712968 119.82939289712968 0 0 1 64.16576514563927,10.687983791511769"/><text text-anchor="middle" pointer-events="none" font-size="8px" fill="#000000" x="53.23655312428558" y="13.52300552972261" transform="rotate(180 53.23655312428558 10.52300552972261)" font-family="sans-serif">trek</text></g><g class="relationship" transform="translate(15.137843930824117 67.27317446185229) rotate(462.60634910667545)"><path class="outline" fill="#A5ABB6" stroke="none" d="M 24.018736134675446,-6.953439040707552 L 24.277555179777966,-5.987513214418485 A 118.82939289712968 118.82939289712968 0 0 1 27.384638419670143,-6.775296148309394 L 27.15196680462798,-7.747851503830958 A 119.82939289712968 119.82939289712968 0 0 0 24.018736134675446,-6.953439040707552 Z M 79.39285916221873,-8.53434321925593 L 79.18957019117633,-7.555224434709061 A 118.82939289712968 118.82939289712968 0 0 1 82.31896019465886,-6.8613322120604 L 81.6300878285746,-3.94149405503089 L 89.24672795540842,-5.740603050702072 L 83.23745668277118,-10.754449754766414 L 82.54858431668693,-7.834611597736904 A 119.82939289712968 119.82939289712968 0 0 0 79.39285916221873,-8.53434321925593"/><text text-anchor="middle" pointer-events="none" font-size="8px" fill="#000000" x="53.23655312428556" y="-7.52300552972261" transform="rotate(180 53.23655312428556 -10.52300552972261)" font-family="sans-serif">twowheeler</text></g><g class="relationship" transform="translate(89.60519753743122 -13.472562738376478) rotate(492.6836433224481)"><path class="outline" fill="#A5ABB6" stroke="none" d="M 24.018736134675446,6.953439040707552 L 24.277555179777966,5.987513214418485 A 111.37970907288255 111.37970907288255 0 0 0 25.55545487660675,6.321816497789655 L 25.308109193281396,7.290743797921252 A 112.37970907288255 112.37970907288255 0 0 1 24.018736134675446,6.953439040707552 Z M 77.50507937120649,8.101757366981502 L 77.28795535080559,7.125613340843472 A 111.37970907288255 111.37970907288255 0 0 0 78.57562419372286,6.831172733236747 L 77.88956891633195,3.9106713796393735 L 85.50446989834855,5.7171273115908665 L 79.49036456357739,10.725174538033245 L 78.80430928618648,7.804673184435871 A 112.37970907288255 112.37970907288255 0 0 1 77.50507937120649,8.101757366981502"/><text text-anchor="middle" pointer-events="none" font-size="8px" fill="#000000" x="51.366617198323745" y="13.269182450411222" transform="rotate(180 51.366617198323745 10.269182450411222)" font-family="sans-serif">twowheeler</text></g><g class="relationship" transform="translate(172.28037000616266 78.3277389764297) rotate(227.99386186872823)"><path class="outline" fill="#A5ABB6" stroke="none" d="M 24.018736134675446,6.953439040707552 L 24.277555179777966,5.987513214418485 A 138.62312846783968 138.62312846783968 0 0 0 32.28900537691752,7.881115688580735 L 32.08797935874844,8.860701590898174 A 139.62312846783968 139.62312846783968 0 0 1 24.018736134675446,6.953439040707552 Z M 84.4102440002558,9.588191140446298 L 84.23653078133954,8.603394858175818 A 138.62312846783968 138.62312846783968 0 0 0 92.29753118030854,6.93326397730968 L 91.60194010651126,4.0150191181428605 L 99.22270103066398,5.796592281643866 L 93.22498594537156,10.82425712286544 L 92.52939487157428,7.90601226369862 A 139.62312846783968 139.62312846783968 0 0 1 84.4102440002558,9.588191140446298"/><text text-anchor="middle" pointer-events="none" font-size="8px" fill="#000000" x="58.22167781217482" y="14.197535968582542" transform="rotate(180 58.22167781217482 11.197535968582542)" font-family="sans-serif">twowheeler</text></g><g class="relationship" transform="translate(272.94344276178856 30.1828598509649) rotate(451.7006334621801)"><path class="outline" fill="#A5ABB6" stroke="none" d="M 24.018736134675446,-6.953439040707552 L 24.277555179777966,-5.987513214418485 A 109.03706500873494 109.03706500873494 0 0 1 39.964694718589485,-8.980094187975311 L 39.84974546251288,-9.97346555283714 A 110.03706500873494 110.03706500873494 0 0 0 24.018736134675446,-6.953439040707552 Z M 61.710438578591464,-10.316580261561327 L 61.62672120252604,-9.320090722757868 A 109.03706500873494 109.03706500873494 0 0 1 77.40005065010922,-6.821297827889815 L 76.7149177618938,-3.9005799494418465 L 84.32924784785705,-5.7094407351284975 L 78.31356116772979,-10.715588332487105 L 77.62842827951437,-7.7948704540391365 A 110.03706500873494 110.03706500873494 0 0 0 61.710438578591464,-10.316580261561327"/><text text-anchor="middle" pointer-events="none" font-size="8px" fill="#000000" x="50.779395947951436" y="-7.18937142716706" transform="rotate(180 50.779395947951436 -10.18937142716706)" font-family="sans-serif">trek</text></g><g class="relationship" transform="translate(269.71845372185317 138.8035583351462) rotate(479.53594735339743)"><path class="outline" fill="#A5ABB6" stroke="none" d="M 21.40063509461097,-12.933012701892217 L 21.90063509461097,-12.06698729810778 A 67.51895042406909 67.51895042406909 0 0 1 42.96154060877132,-19.907924313905042 L 42.77346645154409,-20.89007914456225 A 68.51895042406909 68.51895042406909 0 0 0 21.40063509461097,-12.933012701892217 Z M 64.63068381397547,-21.523054851765437 L 64.49976275561409,-20.531662055504782 A 67.51895042406909 67.51895042406909 0 0 1 85.97913196736108,-13.922673280544977 L 84.63199809737542,-11.242145284731945 L 92.4582196025891,-11.22611558321392 L 87.7753104606753,-17.496710608295686 L 86.42817659068963,-14.816182612482656 A 68.51895042406909 68.51895042406909 0 0 0 64.63068381397547,-21.523054851765437"/><text text-anchor="middle" pointer-events="none" font-size="8px" fill="#000000" x="53.69113594132094" y="-18.584307063583296" transform="rotate(180 53.69113594132094 -21.584307063583296)" font-family="sans-serif">trek</text></g><g class="relationship" transform="translate(213.1275474595175 238.68138435705796) rotate(206.2304291771535)"><path class="outline" fill="#A5ABB6" stroke="none" d="M 21.40063509461097,12.933012701892217 L 21.90063509461097,12.06698729810778 A 66.86921625922326 66.86921625922326 0 0 0 42.64742092338962,19.811031127138477 L 42.45768006787177,20.79286533297332 A 67.86921625922326 67.86921625922326 0 0 1 21.40063509461097,12.933012701892217 Z M 64.31452305051201,21.429149803703822 L 64.18222036129288,20.437940442153305 A 66.86921625922326 66.86921625922326 0 0 0 85.34437008782827,13.913926646731364 L 83.99804982826637,11.232989915159127 L 91.82427583809046,11.219335496349014 L 87.13946376724411,17.488508955494346 L 85.79314350768222,14.80757222392211 A 67.86921625922326 67.86921625922326 0 0 1 64.31452305051201,21.429149803703822"/><text text-anchor="middle" pointer-events="none" font-size="8px" fill="#000000" x="53.374857924334684" y="24.49723475591378" transform="rotate(180 53.374857924334684 21.49723475591378)" font-family="sans-serif">trek</text></g><g class="relationship" transform="translate(213.1275474595175 238.68138435705796) rotate(206.2304291771535)"><path class="outline" fill="#A5ABB6" stroke="none" d="M 25 0.5 L 41.58270763392956 0.5 L 41.58270763392956 -0.5 L 25 -0.5 Z M 65.58270763392956 0.5 L 82.16541526785912 0.5 L 82.16541526785912 3.5 L 89.16541526785912 0 L 82.16541526785912 -3.5 L 82.16541526785912 -0.5 L 65.58270763392956 -0.5 Z"/><text text-anchor="middle" pointer-events="none" font-size="8px" fill="#000000" x="53.58270763392956" y="3" transform="rotate(180 53.58270763392956 0)" font-family="sans-serif">road</text></g><g class="relationship" transform="translate(213.1275474595175 238.68138435705796) rotate(206.2304291771535)"><path class="outline" fill="#A5ABB6" stroke="none" d="M 21.40063509461097,-12.933012701892217 L 21.90063509461097,-12.06698729810778 A 66.86921625922326 66.86921625922326 0 0 1 28.167815367718564,-15.258289870326038 L 27.761538318632365,-16.17203981390241 A 67.86921625922326 67.86921625922326 0 0 0 21.40063509461097,-12.933012701892217 Z M 79.25458670081031,-17.67107730354249 L 78.90215381893896,-16.735240211001347 A 66.86921625922326 66.86921625922326 0 0 1 85.34437008782827,-13.913926646731364 L 83.99804982826637,-11.232989915159127 L 91.82427583809046,-11.219335496349014 L 87.13946376724411,-17.488508955494346 L 85.79314350768222,-14.80757222392211 A 67.86921625922326 67.86921625922326 0 0 0 79.25458670081031,-17.67107730354249"/><text text-anchor="middle" pointer-events="none" font-size="8px" fill="#000000" x="53.37485792433467" y="-18.49723475591378" transform="rotate(180 53.37485792433467 -21.49723475591378)" font-family="sans-serif">twowheeler</text></g><g class="relationship" transform="translate(269.71845372185317 138.8035583351462) rotate(479.53594735339743)"><path class="outline" fill="#A5ABB6" stroke="none" d="M 25 0.5 L 41.89797645051552 0.5 L 41.89797645051552 -0.5 L 25 -0.5 Z M 65.89797645051553 0.5 L 82.79595290103104 0.5 L 82.79595290103104 3.5 L 89.79595290103104 0 L 82.79595290103104 -3.5 L 82.79595290103104 -0.5 L 65.89797645051553 -0.5 Z"/><text text-anchor="middle" pointer-events="none" font-size="8px" fill="#000000" x="53.89797645051552" y="3" transform="rotate(180 53.89797645051552 0)" font-family="sans-serif">road</text></g><g class="relationship" transform="translate(269.71845372185317 138.8035583351462) rotate(479.53594735339743)"><path class="outline" fill="#A5ABB6" stroke="none" d="M 21.40063509461097,12.933012701892217 L 21.90063509461097,12.06698729810778 A 67.51895042406909 67.51895042406909 0 0 0 28.467687846081162,15.39500036128289 L 28.06495021035407,16.310315824262155 A 68.51895042406909 68.51895042406909 0 0 1 21.40063509461097,12.933012701892217 Z M 79.57958364852468,17.8021576717924 L 79.23049083268555,16.865069519093026 A 67.51895042406909 67.51895042406909 0 0 0 85.97913196736108,13.922673280544977 L 84.63199809737542,11.242145284731945 L 92.4582196025891,11.22611558321392 L 87.7753104606753,17.496710608295686 L 86.42817659068963,14.816182612482656 A 68.51895042406909 68.51895042406909 0 0 1 79.57958364852468,17.8021576717924"/><text text-anchor="middle" pointer-events="none" font-size="8px" fill="#000000" x="53.691135941320944" y="24.584307063583296" transform="rotate(180 53.691135941320944 21.584307063583296)" font-family="sans-serif">twowheeler</text></g><g class="relationship" transform="translate(272.94344276178856 30.1828598509649) rotate(451.7006334621801)"><path class="outline" fill="#A5ABB6" stroke="none" d="M 24.018736134675446,6.953439040707552 L 24.277555179777966,5.987513214418485 A 109.03706500873494 109.03706500873494 0 0 0 38.87762443122672,8.848767766553053 L 38.75270544341462,9.840934711418683 A 110.03706500873494 110.03706500873494 0 0 1 24.018736134675446,6.953439040707552 Z M 62.81109747481058,10.218543423566686 L 62.71737747920845,9.222944828537365 A 109.03706500873494 109.03706500873494 0 0 0 77.40005065010922,6.821297827889815 L 76.7149177618938,3.9005799494418465 L 84.32924784785705,5.7094407351284975 L 78.31356116772979,10.715588332487105 L 77.62842827951437,7.7948704540391365 A 110.03706500873494 110.03706500873494 0 0 1 62.81109747481058,10.218543423566686"/><text text-anchor="middle" pointer-events="none" font-size="8px" fill="#000000" x="50.77939594795146" y="13.18937142716706" transform="rotate(180 50.77939594795146 10.18937142716706)" font-family="sans-serif">road</text></g><g class="relationship" transform="translate(89.60519753743122 -13.472562738376478) rotate(186.8750055218988)"><path class="outline" fill="#A5ABB6" stroke="none" d="M 24.018736134675446,-6.953439040707552 L 24.277555179777966,-5.987513214418485 A 127.10797304753974 127.10797304753974 0 0 1 44.48984826979117,-9.683998414517589 L 44.390045945712544,-10.679005698967586 A 128.10797304753976 128.10797304753976 0 0 0 24.018736134675446,-6.953439040707552 Z M 66.24654624149176,-10.997059687452534 L 66.17573857326593,-9.999569700474993 A 127.10797304753974 127.10797304753974 0 0 1 86.48703235245179,-6.892780392080634 L 85.7952225722904,-3.9736368142357463 L 93.41366899745009,-5.765081501344881 L 87.40944539266697,-10.784971829207151 L 86.71763561250557,-7.865828251362264 A 128.10797304753976 128.10797304753976 0 0 0 66.24654624149176,-10.997059687452534"/><text text-anchor="middle" pointer-events="none" font-size="8px" fill="#000000" x="55.31877527665457" y="-7.8051034896594444" transform="rotate(180 55.31877527665457 -10.805103489659444)" font-family="sans-serif">trek</text></g><g class="relationship" transform="translate(-27.288077744649126 -27.566466277012346) rotate(425.8989427565049)"><path class="outline" fill="#A5ABB6" stroke="none" d="M 21.40063509461097,12.933012701892217 L 21.90063509461097,12.06698729810778 A 56.25503699480243 56.25503699480243 0 0 0 37.53911784325196,18.199887345107108 L 37.3171104210559,19.174932320731237 A 57.25503699480243 57.25503699480243 0 0 1 21.40063509461097,12.933012701892217 Z M 59.163154847240605,19.870293929774874 L 59.003605544075235,18.88310396838981 A 56.25503699480243 56.25503699480243 0 0 0 75.00045834986783,13.757159569956283 L 73.66872134860182,11.068948908668927 L 81.49490605974933,11.097808343883475 L 76.77610768488918,17.341440451672756 L 75.44437068362318,14.653229790385403 A 57.25503699480243 57.25503699480243 0 0 1 59.163154847240605,19.870293929774874"/><text text-anchor="middle" pointer-events="none" font-size="8px" fill="#000000" x="48.222549976096545" y="23.075004174647283" font-family="sans-serif">trek</text></g><g class="relationship" transform="translate(-27.288077744649126 -27.566466277012346) rotate(425.8989427565049)"><path class="outline" fill="#A5ABB6" stroke="none" d="M 25 0.5 L 36.44833078523867 0.5 L 36.44833078523867 -0.5 L 25 -0.5 Z M 60.44833078523867 0.5 L 71.89666157047733 0.5 L 71.89666157047733 3.5 L 78.89666157047733 0 L 71.89666157047733 -3.5 L 71.89666157047733 -0.5 L 60.44833078523867 -0.5 Z"/><text text-anchor="middle" pointer-events="none" font-size="8px" fill="#000000" x="48.44833078523867" y="3" font-family="sans-serif">road</text></g><g class="relationship" transform="translate(-27.288077744649126 -27.566466277012346) rotate(425.8989427565049)"><path class="outline" fill="#A5ABB6" stroke="none" d="M 21.40063509461097,-12.933012701892217 L 21.90063509461097,-12.06698729810778 A 56.25503699480243 56.25503699480243 0 0 1 23.360052202052223,-12.880923613545917 L 22.88599507197827,-13.761417700650448 A 57.25503699480243 57.25503699480243 0 0 0 21.40063509461097,-12.933012701892217 Z M 73.9093344200837,-15.385495298210948 L 73.49223258797346,-14.476635539144525 A 56.25503699480243 56.25503699480243 0 0 1 75.00045834986783,-13.757159569956283 L 73.66872134860182,-11.068948908668927 L 81.49490605974933,-11.097808343883475 L 76.77610768488918,-17.341440451672756 L 75.44437068362318,-14.653229790385403 A 57.25503699480243 57.25503699480243 0 0 0 73.9093344200837,-15.385495298210948"/><text text-anchor="middle" pointer-events="none" font-size="8px" fill="#000000" x="48.222549976096545" y="-17.075004174647283" font-family="sans-serif">twowheeler</text></g><g class="relationship" transform="translate(-27.288077744649126 -27.566466277012346) rotate(476.8501621142958)"><path class="outline" fill="#A5ABB6" stroke="none" d="M 25 0.5 L 47.22865757649776 0.5 L 47.22865757649776 -0.5 L 25 -0.5 Z M 69.02865776723263 0.5 L 91.25731534373038 0.5 L 91.25731534373038 3.5 L 98.25731534373038 0 L 91.25731534373038 -3.5 L 91.25731534373038 -0.5 L 69.02865776723263 -0.5 Z"/><text text-anchor="middle" pointer-events="none" font-size="8px" fill="#000000" x="58.12865767186519" y="3" transform="rotate(180 58.12865767186519 0)" font-family="sans-serif">trek</text></g><g class="relationship" transform="translate(-82.95833151803188 82.40256859440478) rotate(412.5506534028441)"><path class="outline" fill="#A5ABB6" stroke="none" d="M 25 0.5 L 45.879813438454285 0.5 L 45.879813438454285 -0.5 L 25 -0.5 Z M 67.67981362918914 0.5 L 88.55962706764343 0.5 L 88.55962706764343 3.5 L 95.55962706764343 0 L 88.55962706764343 -3.5 L 88.55962706764343 -0.5 L 67.67981362918914 -0.5 Z"/><text text-anchor="middle" pointer-events="none" font-size="8px" fill="#000000" x="56.77981353382172" y="3" font-family="sans-serif">trek</text></g><g class="relationship" transform="translate(89.60519753743122 -13.472562738376478) rotate(186.8750055218988)"><path class="outline" fill="#A5ABB6" stroke="none" d="M 24.018736134675446,6.953439040707552 L 24.277555179777966,5.987513214418485 A 127.10797304753974 127.10797304753974 0 0 0 29.428963422905817,7.253234602497699 L 29.210672191437776,8.22911827295448 A 128.10797304753976 128.10797304753976 0 0 1 24.018736134675446,6.953439040707552 Z M 81.4907786638481,8.98989406765837 L 81.3009758069567,8.008071845707832 A 127.10797304753974 127.10797304753974 0 0 0 86.48703235245179,6.892780392080634 L 85.7952225722904,3.9736368142357463 L 93.41366899745009,5.765081501344881 L 87.40944539266697,10.784971829207151 L 86.71763561250557,7.865828251362264 A 128.10797304753976 128.10797304753976 0 0 1 81.4907786638481,8.98989406765837"/><text text-anchor="middle" pointer-events="none" font-size="8px" fill="#000000" x="55.31877527665459" y="13.805103489659444" transform="rotate(180 55.31877527665459 10.805103489659444)" font-family="sans-serif">twowheeler</text></g><g class="relationship" transform="translate(172.28037000616266 78.3277389764297) rotate(391.8261768249899)"><path class="outline" fill="#A5ABB6" stroke="none" d="M 25 0.5 L 42.940005322521266 0.5 L 42.940005322521266 -0.5 L 25 -0.5 Z M 64.74000551325614 0.5 L 82.6800108357774 0.5 L 82.6800108357774 3.5 L 89.6800108357774 0 L 82.6800108357774 -3.5 L 82.6800108357774 -0.5 L 64.74000551325614 -0.5 Z"/><text text-anchor="middle" pointer-events="none" font-size="8px" fill="#000000" x="53.8400054178887" y="3" font-family="sans-serif">trek</text></g></g><g class="layer nodes"><g class="node" transform="translate(272.94344276178856,30.1828598509649)"><circle class="outline" cx="0" cy="0" r="25" fill="#57C7E3" stroke="#23b3d7" stroke-width="2px"/><text text-anchor="middle" pointer-events="none" font-family="sans-serif" dy="1.5625" font-size="25" fill="#2A2C34"/><text text-anchor="middle" pointer-events="none" x="0" y="5" font-size="10px" fill="#2A2C34" font-family="sans-serif"> Darjeeli…</text></g><g class="node" transform="translate(-9.650867302561771,178.11379765864172)"><circle class="outline" cx="0" cy="0" r="25" fill="#F79767" stroke="#f36924" stroke-width="2px"/><text text-anchor="middle" pointer-events="none" font-family="sans-serif" dy="1.5625" font-size="25" fill="#FFFFFF"/><text text-anchor="middle" pointer-events="none" x="0" y="5" font-size="10px" fill="#FFFFFF" font-family="sans-serif"> Sandak…</text></g><g class="node" transform="translate(172.28037000616266,78.3277389764297)"><circle class="outline" cx="0" cy="0" r="25" fill="#57C7E3" stroke="#23b3d7" stroke-width="2px"/><text text-anchor="middle" pointer-events="none" font-family="sans-serif" dy="1.5625" font-size="25" fill="#2A2C34"/><text text-anchor="middle" pointer-events="none" x="0" y="5" font-size="10px" fill="#2A2C34" font-family="sans-serif"> Rimbik</text></g><g class="node" transform="translate(110.7184569259822,188.2222898410355)"><circle class="outline" cx="0" cy="0" r="25" fill="#F16667" stroke="#eb2728" stroke-width="2px"/><text text-anchor="middle" pointer-events="none" font-family="sans-serif" dy="1.5625" font-size="25" fill="#FFFFFF"/><text text-anchor="middle" pointer-events="none" x="0" y="5" font-size="10px" fill="#FFFFFF" font-family="sans-serif"> BhikeB…</text></g><g class="node" transform="translate(89.60519753743122,-13.472562738376478)"><circle class="outline" cx="0" cy="0" r="25" fill="#F16667" stroke="#eb2728" stroke-width="2px"/><text text-anchor="middle" pointer-events="none" font-family="sans-serif" dy="1.5625" font-size="25" fill="#FFFFFF"/><text text-anchor="middle" pointer-events="none" x="0" y="5" font-size="10px" fill="#FFFFFF" font-family="sans-serif"> Sirikhola</text></g><g class="node" transform="translate(15.137843930824117,67.27317446185229)"><circle class="outline" cx="0" cy="0" r="25" fill="#F16667" stroke="#eb2728" stroke-width="2px"/><text text-anchor="middle" pointer-events="none" font-family="sans-serif" dy="1.5625" font-size="25" fill="#FFFFFF"/><text text-anchor="middle" pointer-events="none" x="0" y="5" font-size="10px" fill="#FFFFFF" font-family="sans-serif"> Gurdum</text></g><g class="node" transform="translate(269.71845372185317,138.8035583351462)"><circle class="outline" cx="0" cy="0" r="25" fill="#F16667" stroke="#eb2728" stroke-width="2px"/><text text-anchor="middle" pointer-events="none" font-family="sans-serif" dy="1.5625" font-size="25" fill="#FFFFFF"/><text text-anchor="middle" pointer-events="none" x="0" y="5" font-size="10px" fill="#FFFFFF" font-family="sans-serif"> Tumbling</text></g><g class="node" transform="translate(213.1275474595175,238.68138435705796)"><circle class="outline" cx="0" cy="0" r="25" fill="#F16667" stroke="#eb2728" stroke-width="2px"/><text text-anchor="middle" pointer-events="none" font-family="sans-serif" dy="1.5625" font-size="25" fill="#FFFFFF"/><text text-anchor="middle" pointer-events="none" x="0" y="5" font-size="10px" fill="#FFFFFF" font-family="sans-serif"> Gairibus</text></g><g class="node" transform="translate(-27.288077744649126,-27.566466277012346)"><circle class="outline" cx="0" cy="0" r="25" fill="#F16667" stroke="#eb2728" stroke-width="2px"/><text text-anchor="middle" pointer-events="none" font-family="sans-serif" dy="1.5625" font-size="25" fill="#FFFFFF"/><text text-anchor="middle" pointer-events="none" x="0" y="5" font-size="10px" fill="#FFFFFF" font-family="sans-serif"> Ramm…</text></g><g class="node" transform="translate(-82.95833151803188,82.40256859440478)"><circle class="outline" cx="0" cy="0" r="25" fill="#F79767" stroke="#f36924" stroke-width="2px"/><text text-anchor="middle" pointer-events="none" font-family="sans-serif" dy="1.5625" font-size="25" fill="#FFFFFF"/><text text-anchor="middle" pointer-events="none" x="0" y="5" font-size="10px" fill="#FFFFFF" font-family="sans-serif"> Sabarg…</text></g></g></svg>