<svg xmlns="http://www.w3.org/2000/svg" width="267.6842956542969" height="289.6318359375" viewBox="-30.44865608215332 -40.53539276123047 267.6842956542969 289.6318359375"><title>Neo4j Graph Visualization</title><desc>Created using Neo4j (http://www.neo4j.com/)</desc><g class="layer relationships"><g class="relationship" transform="translate(115.21383935939974 -11.535390764943424) rotate(390.92044771256667)"><path class="outline" fill="#A5ABB6" stroke="none" d="M 25 0.5 L 33.324322537142024 0.5 L 33.324322537142024 -0.5 L 25 -0.5 Z M 68.10765536184905 0.5 L 76.43197789899108 0.5 L 76.43197789899108 3.5 L 83.43197789899108 0 L 76.43197789899108 -3.5 L 76.43197789899108 -0.5 L 68.10765536184905 -0.5 Z"/><text text-anchor="middle" pointer-events="none" font-size="8px" fill="#000000" x="50.71598894949554" y="3" font-family="sans-serif">ORIGIN</text></g><g class="relationship" transform="translate(115.21383935939974 -11.535390764943424) rotate(509.14889444576664)"><path class="outline" fill="#A5ABB6" stroke="none" d="M 25 0.5 L 25.88230662932994 0.5 L 25.88230662932994 -0.5 L 25 -0.5 Z M 74.88230662932995 0.5 L 75.76461325865988 0.5 L 75.76461325865988 3.5 L 82.76461325865988 0 L 75.76461325865988 -3.5 L 75.76461325865988 -0.5 L 74.88230662932995 -0.5 Z"/><text text-anchor="middle" pointer-events="none" font-size="8px" fill="#000000" x="50.38230662932994" y="3" transform="rotate(180 50.38230662932994 0)" font-family="sans-serif">DESTINA…</text></g><g class="relationship" transform="translate(-1.4486553470318286 148.72345234916742) rotate(282.95128383768264)"><path class="outline" fill="#A5ABB6" stroke="none" d="M 25 0.5 L 32.9767940145432 0.5 L 32.9767940145432 -0.5 L 25 -0.5 Z M 67.76012683925023 0.5 L 75.73692085379344 0.5 L 75.73692085379344 3.5 L 82.73692085379344 0 L 75.73692085379344 -3.5 L 75.73692085379344 -0.5 L 67.76012683925023 -0.5 Z"/><text text-anchor="middle" pointer-events="none" font-size="8px" fill="#000000" x="50.36846042689672" y="3" font-family="sans-serif">ORIGIN</text></g><g class="relationship" transform="translate(-1.4486553470318286 148.72345234916742) rotate(401.18284688062414)"><path class="outline" fill="#A5ABB6" stroke="none" d="M 25 0.5 L 26.196558031643598 0.5 L 26.196558031643598 -0.5 L 25 -0.5 Z M 75.1965580316436 0.5 L 76.3931160632872 0.5 L 76.3931160632872 3.5 L 83.3931160632872 0 L 76.3931160632872 -3.5 L 76.3931160632872 -0.5 L 75.1965580316436 -0.5 Z"/><text text-anchor="middle" pointer-events="none" font-size="8px" fill="#000000" x="50.6965580316436" y="3" font-family="sans-serif">DESTINA…</text></g></g><g class="layer nodes"><g class="node" transform="translate(208.23563572244746,44.18210408612622)"><circle class="outline" cx="0" cy="0" r="25" fill="#8DCC93" stroke="#5db665" stroke-width="2px"/><text text-anchor="middle" pointer-events="none" font-family="sans-serif" dy="1.5625" font-size="25" fill="#2A2C34"/><text text-anchor="middle" pointer-events="none" x="0" y="5" font-size="10px" fill="#2A2C34" font-family="sans-serif"> MSN</text></g><g class="node" transform="translate(80.12931238650181,220.09643596605002)"><circle class="outline" cx="0" cy="0" r="25" fill="#8DCC93" stroke="#5db665" stroke-width="2px"/><text text-anchor="middle" pointer-events="none" font-family="sans-serif" dy="1.5625" font-size="25" fill="#2A2C34"/><text text-anchor="middle" pointer-events="none" x="0" y="5" font-size="10px" fill="#2A2C34" font-family="sans-serif"> GRR</text></g><g class="node" transform="translate(115.21383935939974,-11.535390764943424)"><circle class="outline" cx="0" cy="0" r="25" fill="#D9C8AE" stroke="#c0a378" stroke-width="2px"/><text text-anchor="middle" pointer-events="none" font-family="sans-serif" dy="1.5625" font-size="25" fill="#2A2C34"/><text text-anchor="middle" pointer-events="none" x="0" y="5" font-size="10px" fill="#2A2C34" font-family="sans-serif"> 11/30/2…</text></g><g class="node" transform="translate(22.697613531164887,43.727253302162005)"><circle class="outline" cx="0" cy="0" r="25" fill="#8DCC93" stroke="#5db665" stroke-width="2px"/><text text-anchor="middle" pointer-events="none" font-family="sans-serif" dy="1.5625" font-size="25" fill="#2A2C34"/><text text-anchor="middle" pointer-events="none" x="0" y="5" font-size="10px" fill="#2A2C34" font-family="sans-serif"> ORD</text></g><g class="node" transform="translate(-1.4486553470318286,148.72345234916742)"><circle class="outline" cx="0" cy="0" r="25" fill="#D9C8AE" stroke="#c0a378" stroke-width="2px"/><text text-anchor="middle" pointer-events="none" font-family="sans-serif" dy="1.5625" font-size="25" fill="#2A2C34"/><text text-anchor="middle" pointer-events="none" x="0" y="5" font-size="10px" fill="#2A2C34" font-family="sans-serif"> 11/17/2…</text></g></g></svg>