<svg xmlns="http://www.w3.org/2000/svg" width="406.637451171875" height="399.9911193847656" viewBox="-97.83769989013672 -85.1708984375 406.637451171875 399.9911193847656"><title>Neo4j Graph Visualization</title><desc>Created using Neo4j (http://www.neo4j.com/)</desc><g class="layer relationships"><g class="relationship" transform="translate(279.79973889650284 107.76579846638718) rotate(465.5372032716895)"><path class="outline" fill="#A5ABB6" stroke="none" d="M 25 0.5 L 32.87208854819965 0.5 L 32.87208854819965 -0.5 L 25 -0.5 Z M 67.65542137290669 0.5 L 75.52750992110633 0.5 L 75.52750992110633 3.5 L 82.52750992110633 0 L 75.52750992110633 -3.5 L 75.52750992110633 -0.5 L 67.65542137290669 -0.5 Z"/><text text-anchor="middle" pointer-events="none" font-size="8px" fill="#000000" x="50.263754960553165" y="3" transform="rotate(180 50.263754960553165 0)" font-family="sans-serif">ORIGIN</text></g><g class="relationship" transform="translate(279.79973889650284 107.76579846638718) rotate(251.7518701505674)"><path class="outline" fill="#A5ABB6" stroke="none" d="M 25 0.5 L 26.137583362680132 0.5 L 26.137583362680132 -0.5 L 25 -0.5 Z M 75.13758336268013 0.5 L 76.27516672536026 0.5 L 76.27516672536026 3.5 L 83.27516672536026 0 L 76.27516672536026 -3.5 L 76.27516672536026 -0.5 L 75.13758336268013 -0.5 Z"/><text text-anchor="middle" pointer-events="none" font-size="8px" fill="#000000" x="50.63758336268013" y="3" transform="rotate(180 50.63758336268013 0)" font-family="sans-serif">DESTINA…</text></g><g class="relationship" transform="translate(155.01574188640626 -54.209780344284404) rotate(393.0566402670995)"><path class="outline" fill="#A5ABB6" stroke="none" d="M 25 0.5 L 33.32384922384635 0.5 L 33.32384922384635 -0.5 L 25 -0.5 Z M 68.10718204855338 0.5 L 76.43103127239974 0.5 L 76.43103127239974 3.5 L 83.43103127239974 0 L 76.43103127239974 -3.5 L 76.43103127239974 -0.5 L 68.10718204855338 -0.5 Z"/><text text-anchor="middle" pointer-events="none" font-size="8px" fill="#000000" x="50.71551563619987" y="3" font-family="sans-serif">ORIGIN</text></g><g class="relationship" transform="translate(155.01574188640626 -54.209780344284404) rotate(181.0335474909093)"><path class="outline" fill="#A5ABB6" stroke="none" d="M 25 0.5 L 26.36127894159631 0.5 L 26.36127894159631 -0.5 L 25 -0.5 Z M 75.36127894159631 0.5 L 76.72255788319262 0.5 L 76.72255788319262 3.5 L 83.72255788319262 0 L 76.72255788319262 -3.5 L 76.72255788319262 -0.5 L 75.36127894159631 -0.5 Z"/><text text-anchor="middle" pointer-events="none" font-size="8px" fill="#000000" x="50.86127894159631" y="3" transform="rotate(180 50.86127894159631 0)" font-family="sans-serif">DESTINA…</text></g><g class="relationship" transform="translate(-44.2943958464373 4.093018524187139) rotate(326.37108940584693)"><path class="outline" fill="#A5ABB6" stroke="none" d="M 25 0.5 L 26.408304625903547 0.5 L 26.408304625903547 -0.5 L 25 -0.5 Z M 75.40830462590355 0.5 L 76.8166092518071 0.5 L 76.8166092518071 3.5 L 83.8166092518071 0 L 76.8166092518071 -3.5 L 76.8166092518071 -0.5 L 75.40830462590355 -0.5 Z"/><text text-anchor="middle" pointer-events="none" font-size="8px" fill="#000000" x="50.90830462590355" y="3" font-family="sans-serif">DESTINA…</text></g><g class="relationship" transform="translate(-44.2943958464373 4.093018524187139) rotate(462.9990879918846)"><path class="outline" fill="#A5ABB6" stroke="none" d="M 25 0.5 L 33.664631213243986 0.5 L 33.664631213243986 -0.5 L 25 -0.5 Z M 68.44796403795101 0.5 L 77.112595251195 0.5 L 77.112595251195 3.5 L 84.112595251195 0 L 77.112595251195 -3.5 L 77.112595251195 -0.5 L 68.44796403795101 -0.5 Z"/><text text-anchor="middle" pointer-events="none" font-size="8px" fill="#000000" x="51.0562976255975" y="3" transform="rotate(180 51.0562976255975 0)" font-family="sans-serif">ORIGIN</text></g><g class="relationship" transform="translate(-33.95134580893742 212.25719410171774) rotate(251.09190538845712)"><path class="outline" fill="#A5ABB6" stroke="none" d="M 25 0.5 L 32.936809573018316 0.5 L 32.936809573018316 -0.5 L 25 -0.5 Z M 67.72014239772534 0.5 L 75.65695197074366 0.5 L 75.65695197074366 3.5 L 82.65695197074366 0 L 75.65695197074366 -3.5 L 75.65695197074366 -0.5 L 67.72014239772534 -0.5 Z"/><text text-anchor="middle" pointer-events="none" font-size="8px" fill="#000000" x="50.32847598537183" y="3" transform="rotate(180 50.32847598537183 0)" font-family="sans-serif">ORIGIN</text></g><g class="relationship" transform="translate(-33.95134580893742 212.25719410171774) rotate(403.69061017954846)"><path class="outline" fill="#A5ABB6" stroke="none" d="M 25 0.5 L 25.24759424583003 0.5 L 25.24759424583003 -0.5 L 25 -0.5 Z M 74.24759424583003 0.5 L 74.49518849166006 0.5 L 74.49518849166006 3.5 L 81.49518849166006 0 L 74.49518849166006 -3.5 L 74.49518849166006 -0.5 L 74.24759424583003 -0.5 Z"/><text text-anchor="middle" pointer-events="none" font-size="8px" fill="#000000" x="49.74759424583003" y="3" font-family="sans-serif">DESTINA…</text></g></g><g class="layer nodes"><g class="node" transform="translate(250.99698741738544,211.36390123408182)"><circle class="outline" cx="0" cy="0" r="25" fill="#8DCC93" stroke="#5db665" stroke-width="2px"/><text text-anchor="middle" pointer-events="none" font-family="sans-serif" dy="1.5625" font-size="25" fill="#2A2C34"/><text text-anchor="middle" pointer-events="none" x="0" y="5" font-size="10px" fill="#2A2C34" font-family="sans-serif"> LAX</text></g><g class="node" transform="translate(43.0532334535029,285.8202279195855)"><circle class="outline" cx="0" cy="0" r="25" fill="#8DCC93" stroke="#5db665" stroke-width="2px"/><text text-anchor="middle" pointer-events="none" font-family="sans-serif" dy="1.5625" font-size="25" fill="#2A2C34"/><text text-anchor="middle" pointer-events="none" x="0" y="5" font-size="10px" fill="#2A2C34" font-family="sans-serif"> DAY</text></g><g class="node" transform="translate(279.79973889650284,107.76579846638718)"><circle class="outline" cx="0" cy="0" r="25" fill="#D9C8AE" stroke="#c0a378" stroke-width="2px"/><text text-anchor="middle" pointer-events="none" font-family="sans-serif" dy="1.5625" font-size="25" fill="#2A2C34"/><text text-anchor="middle" pointer-events="none" x="0" y="5" font-size="10px" fill="#2A2C34" font-family="sans-serif"> 11/29/2…</text></g><g class="node" transform="translate(245.89523191753653,4.935860530405775)"><circle class="outline" cx="0" cy="0" r="25" fill="#8DCC93" stroke="#5db665" stroke-width="2px"/><text text-anchor="middle" pointer-events="none" font-family="sans-serif" dy="1.5625" font-size="25" fill="#2A2C34"/><text text-anchor="middle" pointer-events="none" x="0" y="5" font-size="10px" fill="#2A2C34" font-family="sans-serif"> LAS</text></g><g class="node" transform="translate(155.01574188640626,-54.209780344284404)"><circle class="outline" cx="0" cy="0" r="25" fill="#D9C8AE" stroke="#c0a378" stroke-width="2px"/><text text-anchor="middle" pointer-events="none" font-family="sans-serif" dy="1.5625" font-size="25" fill="#2A2C34"/><text text-anchor="middle" pointer-events="none" x="0" y="5" font-size="10px" fill="#2A2C34" font-family="sans-serif"> 11/29/2…</text></g><g class="node" transform="translate(46.31087260472592,-56.17089918743457)"><circle class="outline" cx="0" cy="0" r="25" fill="#8DCC93" stroke="#5db665" stroke-width="2px"/><text text-anchor="middle" pointer-events="none" font-family="sans-serif" dy="1.5625" font-size="25" fill="#2A2C34"/><text text-anchor="middle" pointer-events="none" x="0" y="5" font-size="10px" fill="#2A2C34" font-family="sans-serif"> DEN</text></g><g class="node" transform="translate(-44.2943958464373,4.093018524187139)"><circle class="outline" cx="0" cy="0" r="25" fill="#D9C8AE" stroke="#c0a378" stroke-width="2px"/><text text-anchor="middle" pointer-events="none" font-family="sans-serif" dy="1.5625" font-size="25" fill="#2A2C34"/><text text-anchor="middle" pointer-events="none" x="0" y="5" font-size="10px" fill="#2A2C34" font-family="sans-serif"> 11/29/2…</text></g><g class="node" transform="translate(-68.83769689688701,110.40945571053241)"><circle class="outline" cx="0" cy="0" r="25" fill="#8DCC93" stroke="#5db665" stroke-width="2px"/><text text-anchor="middle" pointer-events="none" font-family="sans-serif" dy="1.5625" font-size="25" fill="#2A2C34"/><text text-anchor="middle" pointer-events="none" x="0" y="5" font-size="10px" fill="#2A2C34" font-family="sans-serif"> MSP</text></g><g class="node" transform="translate(-33.95134580893742,212.25719410171774)"><circle class="outline" cx="0" cy="0" r="25" fill="#D9C8AE" stroke="#c0a378" stroke-width="2px"/><text text-anchor="middle" pointer-events="none" font-family="sans-serif" dy="1.5625" font-size="25" fill="#2A2C34"/><text text-anchor="middle" pointer-events="none" x="0" y="5" font-size="10px" fill="#2A2C34" font-family="sans-serif"> 11/23/2…</text></g></g></svg>