<svg xmlns="http://www.w3.org/2000/svg" width="286.68328857421875" height="266.0670471191406" viewBox="-54.06646728515625 -32.33799362182617 286.68328857421875 266.0670471191406"><title>Neo4j Graph Visualization</title><desc>Created using Neo4j (http://www.neo4j.com/)</desc><g class="layer relationships"><g class="relationship" transform="translate(155.19146967534192 193.8765005983831) rotate(234.21997230896244)"><path class="outline" fill="#A5ABB6" stroke="none" d="M 25 0.5 L 35.72863365431221 0.5 L 35.72863365431221 -0.5 L 25 -0.5 Z M 71.44530082960517 0.5 L 82.17393448391739 0.5 L 82.17393448391739 3.5 L 89.17393448391739 0 L 82.17393448391739 -3.5 L 82.17393448391739 -0.5 L 71.44530082960517 -0.5 Z"/><text text-anchor="middle" pointer-events="none" font-size="8px" fill="#000000" x="53.586967241958696" y="3" transform="rotate(180 53.586967241958696 0)" font-family="sans-serif">WROTE</text></g><g class="relationship" transform="translate(203.61683125921917 100.56302440954886) rotate(539.6578342764979)"><path class="outline" fill="#A5ABB6" stroke="none" d="M 25 0.5 L 30.67435953592811 0.5 L 30.67435953592811 -0.5 L 25 -0.5 Z M 77.5076915976957 0.5 L 83.1820511336238 0.5 L 83.1820511336238 3.5 L 90.1820511336238 0 L 83.1820511336238 -3.5 L 83.1820511336238 -0.5 L 77.5076915976957 -0.5 Z"/><text text-anchor="middle" pointer-events="none" font-size="8px" fill="#000000" x="54.0910255668119" y="3" transform="rotate(180 54.0910255668119 0)" font-family="sans-serif">DIRECTED</text></g><g class="relationship" transform="translate(150.21662209176955 4.441197507327731) rotate(482.5442735974789)"><path class="outline" fill="#A5ABB6" stroke="none" d="M 25 0.5 L 31.238040921338253 0.5 L 31.238040921338253 -0.5 L 25 -0.5 Z M 76.60470580781286 0.5 L 82.84274672915112 0.5 L 82.84274672915112 3.5 L 89.84274672915112 0 L 82.84274672915112 -3.5 L 82.84274672915112 -0.5 L 76.60470580781286 -0.5 Z"/><text text-anchor="middle" pointer-events="none" font-size="8px" fill="#000000" x="53.92137336457556" y="3" transform="rotate(180 53.92137336457556 0)" font-family="sans-serif">ACTED_IN</text></g><g class="relationship" transform="translate(41.089036571794615 -3.337993931880589) rotate(425.64354855043877)"><path class="outline" fill="#A5ABB6" stroke="none" d="M 25 0.5 L 31.220165023374555 0.5 L 31.220165023374555 -0.5 L 25 -0.5 Z M 76.58682990984917 0.5 L 82.80699493322372 0.5 L 82.80699493322372 3.5 L 89.80699493322372 0 L 82.80699493322372 -3.5 L 82.80699493322372 -0.5 L 76.58682990984917 -0.5 Z"/><text text-anchor="middle" pointer-events="none" font-size="8px" fill="#000000" x="53.90349746661186" y="3" font-family="sans-serif">ACTED_IN</text></g><g class="relationship" transform="translate(-25.066464494918787 101.17300046942478) rotate(360.0393121708697)"><path class="outline" fill="#A5ABB6" stroke="none" d="M 25 0.5 L 30.568330180157865 0.5 L 30.568330180157865 -0.5 L 25 -0.5 Z M 75.93499506663247 0.5 L 81.50332524679034 0.5 L 81.50332524679034 3.5 L 88.50332524679034 0 L 81.50332524679034 -3.5 L 81.50332524679034 -0.5 L 75.93499506663247 -0.5 Z"/><text text-anchor="middle" pointer-events="none" font-size="8px" fill="#000000" x="53.25166262339517" y="3" font-family="sans-serif">ACTED_IN</text></g><g class="relationship" transform="translate(39.83962251144395 204.72906863691392) rotate(295.1564980157137)"><path class="outline" fill="#A5ABB6" stroke="none" d="M 25 0.5 L 30.977460231123004 0.5 L 30.977460231123004 -0.5 L 25 -0.5 Z M 76.34412511759761 0.5 L 82.32158534872062 0.5 L 82.32158534872062 3.5 L 89.32158534872062 0 L 82.32158534872062 -3.5 L 82.32158534872062 -0.5 L 76.34412511759761 -0.5 Z"/><text text-anchor="middle" pointer-events="none" font-size="8px" fill="#000000" x="53.66079267436031" y="3" font-family="sans-serif">ACTED_IN</text></g></g><g class="layer nodes"><g class="node" transform="translate(88.43683403489182,101.25087813867377)"><circle class="outline" cx="0" cy="0" r="25" fill="#57C7E3" stroke="#23b3d7" stroke-width="2px"/><text text-anchor="middle" pointer-events="none" font-family="sans-serif" dy="1.5625" font-size="25" fill="#2A2C34"/><text text-anchor="middle" pointer-events="none" font-family="sans-serif" dy="1.5625" font-size="25" fill="#2A2C34"/><text text-anchor="middle" pointer-events="none" x="0" y="0" font-size="10px" fill="#2A2C34" font-family="sans-serif"> Captain</text><text text-anchor="middle" pointer-events="none" x="0" y="10" font-size="10px" fill="#2A2C34" font-family="sans-serif"> Americ…</text></g><g class="node" transform="translate(155.19146967534192,193.8765005983831)"><circle class="outline" cx="0" cy="0" r="25" fill="#F79767" stroke="#f36924" stroke-width="2px"/><text text-anchor="middle" pointer-events="none" font-family="sans-serif" dy="1.5625" font-size="25" fill="#FFFFFF"/><text text-anchor="middle" pointer-events="none" x="0" y="5" font-size="10px" fill="#FFFFFF" font-family="sans-serif"> Christo…</text></g><g class="node" transform="translate(203.61683125921917,100.56302440954886)"><circle class="outline" cx="0" cy="0" r="25" fill="#F79767" stroke="#f36924" stroke-width="2px"/><text text-anchor="middle" pointer-events="none" font-family="sans-serif" dy="1.5625" font-size="25" fill="#FFFFFF"/><text text-anchor="middle" pointer-events="none" font-family="sans-serif" dy="1.5625" font-size="25" fill="#FFFFFF"/><text text-anchor="middle" pointer-events="none" x="0" y="0" font-size="10px" fill="#FFFFFF" font-family="sans-serif"> Joe</text><text text-anchor="middle" pointer-events="none" x="0" y="10" font-size="10px" fill="#FFFFFF" font-family="sans-serif"> Johnst…</text></g><g class="node" transform="translate(150.21662209176955,4.441197507327731)"><circle class="outline" cx="0" cy="0" r="25" fill="#F79767" stroke="#f36924" stroke-width="2px"/><text text-anchor="middle" pointer-events="none" font-family="sans-serif" dy="1.5625" font-size="25" fill="#FFFFFF"/><text text-anchor="middle" pointer-events="none" x="0" y="5" font-size="10px" fill="#FFFFFF" font-family="sans-serif"> Sebasti…</text></g><g class="node" transform="translate(41.089036571794615,-3.337993931880589)"><circle class="outline" cx="0" cy="0" r="25" fill="#F79767" stroke="#f36924" stroke-width="2px"/><text text-anchor="middle" pointer-events="none" font-family="sans-serif" dy="1.5625" font-size="25" fill="#FFFFFF"/><text text-anchor="middle" pointer-events="none" font-family="sans-serif" dy="1.5625" font-size="25" fill="#FFFFFF"/><text text-anchor="middle" pointer-events="none" x="0" y="0" font-size="10px" fill="#FFFFFF" font-family="sans-serif"> Hayley</text><text text-anchor="middle" pointer-events="none" x="0" y="10" font-size="10px" fill="#FFFFFF" font-family="sans-serif"> Atwell</text></g><g class="node" transform="translate(-25.066464494918787,101.17300046942478)"><circle class="outline" cx="0" cy="0" r="25" fill="#F79767" stroke="#f36924" stroke-width="2px"/><text text-anchor="middle" pointer-events="none" font-family="sans-serif" dy="1.5625" font-size="25" fill="#FFFFFF"/><text text-anchor="middle" pointer-events="none" font-family="sans-serif" dy="1.5625" font-size="25" fill="#FFFFFF"/><text text-anchor="middle" pointer-events="none" x="0" y="0" font-size="10px" fill="#FFFFFF" font-family="sans-serif"> Hugo</text><text text-anchor="middle" pointer-events="none" x="0" y="10" font-size="10px" fill="#FFFFFF" font-family="sans-serif"> Weavi…</text></g><g class="node" transform="translate(39.83962251144395,204.72906863691392)"><circle class="outline" cx="0" cy="0" r="25" fill="#F79767" stroke="#f36924" stroke-width="2px"/><text text-anchor="middle" pointer-events="none" font-family="sans-serif" dy="1.5625" font-size="25" fill="#FFFFFF"/><text text-anchor="middle" pointer-events="none" font-family="sans-serif" dy="1.5625" font-size="25" fill="#FFFFFF"/><text text-anchor="middle" pointer-events="none" x="0" y="0" font-size="10px" fill="#FFFFFF" font-family="sans-serif"> Chris</text><text text-anchor="middle" pointer-events="none" x="0" y="10" font-size="10px" fill="#FFFFFF" font-family="sans-serif"> Evans</text></g></g></svg>